<svg width="1392" height="706" viewBox="0 0 1392 706" fill="none" xmlns="http://www.w3.org/2000/svg">
<g opacity="0.8">
<g clip-path="url(#clip0_3432_203273)">
<path d="M0 789H1392V24C1392 10.7452 1381.25 0 1368 0H24C10.7451 0 0 10.7452 0 24V789Z" fill="url(#paint0_radial_3432_203273)"/>
<g clip-path="url(#clip1_3432_203273)">
<rect width="1440" height="857" transform="matrix(-1 8.74228e-08 8.74228e-08 1 1416 0)" fill="url(#paint1_radial_3432_203273)"/>
<mask id="mask0_3432_203273" style="mask-type:alpha" maskUnits="userSpaceOnUse" x="-25" y="-19" width="1441" height="835">
<rect width="1441" height="835" transform="matrix(-1 8.74228e-08 8.74228e-08 1 1416 -19)" fill="#D9D9D9"/>
</mask>
<g mask="url(#mask0_3432_203273)">
<g opacity="0.8" clip-path="url(#clip2_3432_203273)">
<rect width="3610" height="1926.87" transform="matrix(-1 8.74228e-08 8.74228e-08 1 1416 -631.188)" fill="black"/>
<g filter="url(#filter0_f_3432_203273)">
<path d="M1298.26 -276.929C1402.58 -328.907 1391 -468.91 1505.26 -491.929C1702.03 -531.574 1597.57 -156.174 1505.26 22.0707C1327.01 366.25 409.408 395.634 512.756 22.0708C556.4 -135.686 619.707 -264.875 779.256 -301.429C895.084 -327.966 956.444 -228.936 1075.26 -230.929C1164.16 -232.421 1218.67 -237.274 1298.26 -276.929Z" fill="#0038FF"/>
</g>
<g filter="url(#filter1_f_3432_203273)">
<path d="M1416.26 -357.929C1520.58 -409.907 1509 -549.91 1623.26 -572.929C1820.03 -612.574 1715.57 -237.174 1623.26 -58.9293C1445.01 285.25 527.408 314.634 630.756 -58.9292C674.4 -216.686 737.707 -345.875 897.256 -382.429C1013.08 -408.966 1074.44 -309.936 1193.26 -311.929C1282.16 -313.421 1336.67 -318.274 1416.26 -357.929Z" fill="#FF00F5"/>
</g>
<g filter="url(#filter2_f_3432_203273)">
<ellipse cx="492" cy="326.5" rx="492" ry="326.5" transform="matrix(-1 8.74228e-08 8.74228e-08 1 993 -317.836)" fill="#C96647"/>
</g>
<g filter="url(#filter3_f_3432_203273)">
<ellipse cx="378" cy="251" rx="378" ry="251" transform="matrix(-1 8.74228e-08 8.74228e-08 1 912 -341.836)" fill="#8E046C"/>
</g>
<g filter="url(#filter4_f_3432_203273)">
<circle cx="176.5" cy="176.5" r="176.5" transform="matrix(-1 8.74228e-08 8.74228e-08 1 302 -268.836)" fill="#FFF181"/>
</g>
<g filter="url(#filter5_f_3432_203273)">
<circle cx="176.5" cy="176.5" r="176.5" transform="matrix(-1 8.74228e-08 8.74228e-08 1 328 -133)" fill="#FFF181"/>
</g>
</g>
</g>
<mask id="mask1_3432_203273" style="mask-type:alpha" maskUnits="userSpaceOnUse" x="-25" y="-24" width="1441" height="840">
<rect width="1441" height="839.5" transform="matrix(-1 8.74228e-08 8.74228e-08 1 1416 -23.5)" fill="#D9D9D9"/>
</mask>
<g mask="url(#mask1_3432_203273)">
<g opacity="0.8" clip-path="url(#clip3_3432_203273)">
<rect width="3610" height="1937.25" transform="matrix(-1 8.74228e-08 8.74228e-08 1 1416 -638.988)" fill="#010101"/>
<g filter="url(#filter6_f_3432_203273)">
<path d="M1298.26 -276.929C1402.58 -328.907 1391 -468.91 1505.26 -491.929C1702.03 -531.574 1597.57 -156.174 1505.26 22.0707C1327.01 366.25 409.408 395.634 512.756 22.0708C556.401 -135.686 619.708 -264.875 779.256 -301.429C895.084 -327.966 956.444 -228.936 1075.26 -230.929C1164.16 -232.421 1218.67 -237.274 1298.26 -276.929Z" fill="#0038FF"/>
</g>
<g filter="url(#filter7_f_3432_203273)">
<path d="M1399.59 -383.269C1503.91 -435.247 1492.34 -575.25 1606.59 -598.269C1803.37 -637.914 1698.9 -262.514 1606.59 -84.2691C1428.35 259.91 510.744 289.294 614.092 -84.269C657.736 -242.026 721.043 -371.215 880.592 -407.769C996.42 -434.306 1057.78 -335.276 1176.59 -337.269C1265.5 -338.761 1320 -343.614 1399.59 -383.269Z" fill="#FF00F5"/>
</g>
<g filter="url(#filter8_f_3432_203273)">
<ellipse cx="492" cy="326.5" rx="492" ry="326.5" transform="matrix(-1 8.74228e-08 8.74228e-08 1 993 -317.84)" fill="#E01515"/>
</g>
<g filter="url(#filter9_f_3432_203273)">
<circle cx="176.5" cy="176.5" r="176.5" transform="matrix(-1 8.74228e-08 8.74228e-08 1 230 -268.004)" fill="white"/>
</g>
<g filter="url(#filter10_f_3432_203273)">
<circle cx="176.5" cy="176.5" r="176.5" transform="matrix(-1 8.74228e-08 8.74228e-08 1 1416 -168.004)" fill="white"/>
</g>
<g filter="url(#filter11_f_3432_203273)">
<ellipse cx="737.5" cy="91.4999" rx="737.5" ry="91.4999" transform="matrix(-1 8.74228e-08 8.74228e-08 1 1416 -46.0039)" fill="white"/>
</g>
<g filter="url(#filter12_f_3432_203273)">
<ellipse cx="378" cy="251" rx="378" ry="251" transform="matrix(-1 8.74228e-08 8.74228e-08 1 984 -343.004)" fill="#8E046C" fill-opacity="0.9"/>
</g>
</g>
</g>
</g>
</g>
</g>
<defs>
<filter id="filter0_f_3432_203273" x="154.665" y="-844.84" width="1812.33" height="1486.18" filterUnits="userSpaceOnUse" color-interpolation-filters="sRGB">
<feFlood flood-opacity="0" result="BackgroundImageFix"/>
<feBlend mode="normal" in="SourceGraphic" in2="BackgroundImageFix" result="shape"/>
<feGaussianBlur stdDeviation="175" result="effect1_foregroundBlur_3432_203273"/>
</filter>
<filter id="filter1_f_3432_203273" x="272.665" y="-925.84" width="1812.33" height="1486.18" filterUnits="userSpaceOnUse" color-interpolation-filters="sRGB">
<feFlood flood-opacity="0" result="BackgroundImageFix"/>
<feBlend mode="normal" in="SourceGraphic" in2="BackgroundImageFix" result="shape"/>
<feGaussianBlur stdDeviation="175" result="effect1_foregroundBlur_3432_203273"/>
</filter>
<filter id="filter2_f_3432_203273" x="-341" y="-667.836" width="1684" height="1353" filterUnits="userSpaceOnUse" color-interpolation-filters="sRGB">
<feFlood flood-opacity="0" result="BackgroundImageFix"/>
<feBlend mode="normal" in="SourceGraphic" in2="BackgroundImageFix" result="shape"/>
<feGaussianBlur stdDeviation="175" result="effect1_foregroundBlur_3432_203273"/>
</filter>
<filter id="filter3_f_3432_203273" x="6" y="-491.836" width="1056" height="802" filterUnits="userSpaceOnUse" color-interpolation-filters="sRGB">
<feFlood flood-opacity="0" result="BackgroundImageFix"/>
<feBlend mode="normal" in="SourceGraphic" in2="BackgroundImageFix" result="shape"/>
<feGaussianBlur stdDeviation="75" result="effect1_foregroundBlur_3432_203273"/>
</filter>
<filter id="filter4_f_3432_203273" x="-301" y="-518.836" width="853" height="853" filterUnits="userSpaceOnUse" color-interpolation-filters="sRGB">
<feFlood flood-opacity="0" result="BackgroundImageFix"/>
<feBlend mode="normal" in="SourceGraphic" in2="BackgroundImageFix" result="shape"/>
<feGaussianBlur stdDeviation="125" result="effect1_foregroundBlur_3432_203273"/>
</filter>
<filter id="filter5_f_3432_203273" x="-275" y="-383" width="853" height="853" filterUnits="userSpaceOnUse" color-interpolation-filters="sRGB">
<feFlood flood-opacity="0" result="BackgroundImageFix"/>
<feBlend mode="normal" in="SourceGraphic" in2="BackgroundImageFix" result="shape"/>
<feGaussianBlur stdDeviation="125" result="effect1_foregroundBlur_3432_203273"/>
</filter>
<filter id="filter6_f_3432_203273" x="154.666" y="-844.84" width="1812.33" height="1486.18" filterUnits="userSpaceOnUse" color-interpolation-filters="sRGB">
<feFlood flood-opacity="0" result="BackgroundImageFix"/>
<feBlend mode="normal" in="SourceGraphic" in2="BackgroundImageFix" result="shape"/>
<feGaussianBlur stdDeviation="175" result="effect1_foregroundBlur_3432_203273"/>
</filter>
<filter id="filter7_f_3432_203273" x="256.001" y="-951.18" width="1812.33" height="1486.18" filterUnits="userSpaceOnUse" color-interpolation-filters="sRGB">
<feFlood flood-opacity="0" result="BackgroundImageFix"/>
<feBlend mode="normal" in="SourceGraphic" in2="BackgroundImageFix" result="shape"/>
<feGaussianBlur stdDeviation="175" result="effect1_foregroundBlur_3432_203273"/>
</filter>
<filter id="filter8_f_3432_203273" x="-341" y="-667.84" width="1684" height="1353" filterUnits="userSpaceOnUse" color-interpolation-filters="sRGB">
<feFlood flood-opacity="0" result="BackgroundImageFix"/>
<feBlend mode="normal" in="SourceGraphic" in2="BackgroundImageFix" result="shape"/>
<feGaussianBlur stdDeviation="175" result="effect1_foregroundBlur_3432_203273"/>
</filter>
<filter id="filter9_f_3432_203273" x="-373" y="-518.004" width="853" height="853" filterUnits="userSpaceOnUse" color-interpolation-filters="sRGB">
<feFlood flood-opacity="0" result="BackgroundImageFix"/>
<feBlend mode="normal" in="SourceGraphic" in2="BackgroundImageFix" result="shape"/>
<feGaussianBlur stdDeviation="125" result="effect1_foregroundBlur_3432_203273"/>
</filter>
<filter id="filter10_f_3432_203273" x="813" y="-418.004" width="853" height="853" filterUnits="userSpaceOnUse" color-interpolation-filters="sRGB">
<feFlood flood-opacity="0" result="BackgroundImageFix"/>
<feBlend mode="normal" in="SourceGraphic" in2="BackgroundImageFix" result="shape"/>
<feGaussianBlur stdDeviation="125" result="effect1_foregroundBlur_3432_203273"/>
</filter>
<filter id="filter11_f_3432_203273" x="-309" y="-296.004" width="1975" height="683" filterUnits="userSpaceOnUse" color-interpolation-filters="sRGB">
<feFlood flood-opacity="0" result="BackgroundImageFix"/>
<feBlend mode="normal" in="SourceGraphic" in2="BackgroundImageFix" result="shape"/>
<feGaussianBlur stdDeviation="125" result="effect1_foregroundBlur_3432_203273"/>
</filter>
<filter id="filter12_f_3432_203273" x="78" y="-493.004" width="1056" height="802" filterUnits="userSpaceOnUse" color-interpolation-filters="sRGB">
<feFlood flood-opacity="0" result="BackgroundImageFix"/>
<feBlend mode="normal" in="SourceGraphic" in2="BackgroundImageFix" result="shape"/>
<feGaussianBlur stdDeviation="75" result="effect1_foregroundBlur_3432_203273"/>
</filter>
<radialGradient id="paint0_radial_3432_203273" cx="0" cy="0" r="1" gradientUnits="userSpaceOnUse" gradientTransform="translate(696 733.77) rotate(-90) scale(846.202 2628.44)">
<stop offset="0.177083" stop-opacity="0"/>
<stop offset="0.6927" stop-color="#9033EE"/>
<stop offset="1" stop-color="white"/>
</radialGradient>
<radialGradient id="paint1_radial_3432_203273" cx="0" cy="0" r="1" gradientUnits="userSpaceOnUse" gradientTransform="translate(720 428.5) rotate(30.7585) scale(837.862 736.446)">
<stop stop-color="#7877C6" stop-opacity="0.3"/>
<stop offset="1" stop-color="white" stop-opacity="0"/>
</radialGradient>
<clipPath id="clip0_3432_203273">
<path d="M0 789H1392V24C1392 10.7452 1381.25 0 1368 0H24C10.7451 0 0 10.7452 0 24V789Z" fill="white"/>
</clipPath>
<clipPath id="clip1_3432_203273">
<rect width="1440" height="857" fill="white" transform="matrix(-1 8.74228e-08 8.74228e-08 1 1416 0)"/>
</clipPath>
<clipPath id="clip2_3432_203273">
<rect width="3610" height="1926.87" fill="white" transform="matrix(-1 8.74228e-08 8.74228e-08 1 1416 -631.188)"/>
</clipPath>
<clipPath id="clip3_3432_203273">
<rect width="3610" height="1937.25" fill="white" transform="matrix(-1 8.74228e-08 8.74228e-08 1 1416 -638.988)"/>
</clipPath>
</defs>
</svg>
