<svg
      width="282"
      height="279"
      viewBox="0 0 282 279"
      fill="none"
      xmlns="http://www.w3.org/2000/svg"
    >
      <g clip-path="url(#clip0_1438_54042)">
        <mask
          id="mask0_1438_54042"
          style="mask-type:alpha"
          maskUnits="userSpaceOnUse"
          x="-136"
          y="-190"
          width="573"
          height="469"
        >
          <rect x="-136" y="-190" width="573" height="469" fill="url(#paint0_linear_1438_54042)" />
        </mask>
        <g mask="url(#mask0_1438_54042)">
          <path
            opacity="0.7"
            d="M62.0372 224.938C62.2322 224.743 62.2322 224.426 62.0372 224.231C61.8421 224.035 61.5259 224.035 61.3308 224.231L62.0372 224.938ZM23.1965 262.448C23.0015 262.643 23.0015 262.96 23.1965 263.156C23.3916 263.351 23.7078 263.351 23.9029 263.156L23.1965 262.448ZM124.606 264.713L125.1 264.642L124.606 264.713ZM194.201 217.896L194.695 217.826L194.201 217.896ZM21.6427 161.526L21.7133 161.031L21.7133 161.031L21.6427 161.526ZM68.3572 91.7794L68.2866 92.2749L68.3572 91.7794ZM61.3308 224.231L23.1965 262.448L23.9029 263.156L62.0372 224.938L61.3308 224.231ZM190.034 229.008L147.133 272.002L147.839 272.71L190.741 229.716L190.034 229.008ZM125.1 264.642L119.38 224.514L118.391 224.655L124.111 264.784L125.1 264.642ZM189.893 191.215L193.706 217.967L194.695 217.826L190.882 191.074L189.893 191.215ZM147.133 272.002C139.568 279.584 126.613 275.256 125.1 264.642L124.111 264.784C125.741 276.214 139.692 280.875 147.839 272.71L147.133 272.002ZM190.741 229.716C193.852 226.597 195.318 222.192 194.695 217.826L193.706 217.967C194.284 222.022 192.924 226.112 190.034 229.008L190.741 229.716ZM56.5638 95.2472L13.6626 138.242L14.369 138.95L57.2701 95.9551L56.5638 95.2472ZM21.5721 162.022L61.6131 167.754L61.7543 166.763L21.7133 161.031L21.5721 162.022ZM95.1219 95.1057L68.4279 91.2839L68.2866 92.2749L94.9806 96.0967L95.1219 95.1057ZM13.6626 138.242C5.51552 146.407 10.1661 160.389 21.5721 162.022L21.7133 161.031C11.1222 159.514 6.80391 146.531 14.369 138.95L13.6626 138.242ZM57.2701 95.9551C60.1597 93.0592 64.2411 91.6958 68.2866 92.2749L68.4279 91.2839C64.0712 90.6602 59.6757 92.1285 56.5638 95.2472L57.2701 95.9551Z"
            fill="white"
          />
          <path
            opacity="0.7"
            d="M33.0859 195.926L14.0188 215.034M90.2874 253.252L71.2202 272.361"
            stroke="white"
            stroke-linecap="round"
          />
          <path
            opacity="0.7"
            d="M85.5195 124.266L161.788 200.7"
            stroke="white"
            stroke-linecap="round"
          />
          <path
            opacity="0.7"
            d="M166.907 119.136C156.572 108.778 156.572 91.9846 166.907 81.6267C177.243 71.2687 194 71.2687 204.335 81.6267C214.671 91.9847 214.671 108.778 204.335 119.136C194 129.494 177.243 129.494 166.907 119.136Z"
            stroke="white"
          />
          <path
            opacity="0.7"
            d="M61.6893 224.582L23.555 262.8M228.526 152.925C201.627 181.992 158.683 205.47 135.325 216.946C125.472 221.787 113.815 219.497 106.056 211.721L74.5227 180.119C66.7637 172.343 64.4789 160.66 69.3091 150.786C80.7603 127.378 104.187 84.3399 133.191 57.3818C165.52 27.3319 216.72 16.1547 248.285 12.0174C263.459 10.0285 275.777 22.3734 273.792 37.5799C269.664 69.2136 258.511 120.525 228.526 152.925Z"
            stroke="white"
            stroke-linecap="round"
          />
        </g>
      </g>
      <defs>
        <linearGradient
          id="paint0_linear_1438_54042"
          x1="150.5"
          y1="-94.4797"
          x2="150.5"
          y2="182.122"
          gradientUnits="userSpaceOnUse"
        >
          <stop />
          <stop offset="1" />
        </linearGradient>
        <clipPath id="clip0_1438_54042">
          <rect width="282" height="279" fill="white" />
        </clipPath>
      </defs>
    </svg>