<svg width="18" height="18" viewBox="0 0 18 18" fill="none" xmlns="http://www.w3.org/2000/svg">
<g opacity="0.6" clip-path="url(#clip0_5489_14983)">
<path d="M4.5 10.125V2.8125M4.5 10.125C4.79837 10.125 5.08452 10.2435 5.2955 10.4545C5.50647 10.6655 5.625 10.9516 5.625 11.25C5.625 11.5484 5.50647 11.8345 5.2955 12.0455C5.08452 12.2565 4.79837 12.375 4.5 12.375M4.5 10.125C4.20163 10.125 3.91548 10.2435 3.7045 10.4545C3.49353 10.6655 3.375 10.9516 3.375 11.25C3.375 11.5484 3.49353 11.8345 3.7045 12.0455C3.91548 12.2565 4.20163 12.375 4.5 12.375M4.5 12.375V15.1875M13.5 10.125V2.8125M13.5 10.125C13.7984 10.125 14.0845 10.2435 14.2955 10.4545C14.5065 10.6655 14.625 10.9516 14.625 11.25C14.625 11.5484 14.5065 11.8345 14.2955 12.0455C14.0845 12.2565 13.7984 12.375 13.5 12.375M13.5 10.125C13.2016 10.125 12.9155 10.2435 12.7045 10.4545C12.4935 10.6655 12.375 10.9516 12.375 11.25C12.375 11.5484 12.4935 11.8345 12.7045 12.0455C12.9155 12.2565 13.2016 12.375 13.5 12.375M13.5 12.375V15.1875M9 5.625V2.8125M9 5.625C9.29837 5.625 9.58452 5.74353 9.7955 5.9545C10.0065 6.16548 10.125 6.45163 10.125 6.75C10.125 7.04837 10.0065 7.33452 9.7955 7.5455C9.58452 7.75647 9.29837 7.875 9 7.875M9 5.625C8.70163 5.625 8.41548 5.74353 8.2045 5.9545C7.99353 6.16548 7.875 6.45163 7.875 6.75C7.875 7.04837 7.99353 7.33452 8.2045 7.5455C8.41548 7.75647 8.70163 7.875 9 7.875M9 7.875V15.1875" stroke="black" stroke-linecap="round" stroke-linejoin="round"/>
</g>
<defs>
<clipPath id="clip0_5489_14983">
<rect width="18" height="18" fill="white"/>
</clipPath>
</defs>
</svg>
