<svg width="297" height="276" viewBox="0 0 297 276" fill="none" xmlns="http://www.w3.org/2000/svg">
<mask id="mask0_400_4157" style="mask-type:alpha" maskUnits="userSpaceOnUse" x="-138" y="-248" width="578" height="554">
<rect x="-138" y="-248" width="578" height="554" fill="url(#paint0_linear_400_4157)"/>
</mask>
<g mask="url(#mask0_400_4157)">
<g opacity="0.4">
<path d="M90.3892 15.2073C90.3896 14.3571 90.7564 13.5418 91.4091 12.9407C92.0619 12.3395 92.947 12.0016 93.8701 12.0013H106.053C106.518 11.9892 106.982 12.0632 107.415 12.2189C107.849 12.3746 108.245 12.6089 108.578 12.9078C108.912 13.2067 109.177 13.5642 109.359 13.9592C109.54 14.3541 109.633 14.7785 109.633 15.2073C109.633 15.6361 109.54 16.0605 109.359 16.4555C109.177 16.8505 108.912 17.208 108.578 17.5069C108.245 17.8058 107.849 18.04 107.415 18.1957C106.982 18.3514 106.518 18.4254 106.053 18.4134H93.8701C92.9469 18.4134 92.0615 18.0756 91.4087 17.4743C90.756 16.8731 90.3892 16.0576 90.3892 15.2073Z" stroke="url(#paint1_linear_400_4157)" stroke-opacity="0.2"/>
<path d="M68.5798 28.0364C68.5802 27.1859 68.9963 26.3703 69.7366 25.7689C70.477 25.1675 71.481 24.8294 72.5279 24.8291H119.907C120.935 24.8526 121.911 25.2008 122.628 25.7997C123.345 26.3986 123.746 27.201 123.746 28.0364C123.746 28.8718 123.345 29.6742 122.628 30.2731C121.911 30.8721 120.935 31.2203 119.907 31.2437H72.5279C71.4808 31.2437 70.4766 30.9058 69.7362 30.3043C68.9958 29.7028 68.5798 28.887 68.5798 28.0364Z" stroke="url(#paint2_linear_400_4157)" stroke-opacity="0.2"/>
<path d="M55.7516 40.8636C55.7521 40.013 56.1681 39.1974 56.9085 38.596C57.6488 37.9946 58.6528 37.6566 59.6998 37.6562H128.888C129.916 37.6797 130.893 38.0279 131.609 38.6268C132.326 39.2258 132.727 40.0282 132.727 40.8636C132.727 41.6989 132.326 42.5014 131.609 43.1003C130.893 43.6992 129.916 44.0474 128.888 44.0709H59.6998C58.6527 44.0709 57.6484 43.733 56.908 43.1315C56.1676 42.53 55.7516 41.7142 55.7516 40.8636Z" stroke="url(#paint3_linear_400_4157)" stroke-opacity="0.2"/>
<path d="M48.052 105.011C48.0524 104.16 48.4685 103.345 49.2088 102.743C49.9492 102.142 50.9531 101.804 52.0001 101.804H116.057C117.085 101.827 118.061 102.175 118.778 102.774C119.495 103.373 119.896 104.176 119.896 105.011C119.896 105.846 119.495 106.649 118.778 107.248C118.061 107.847 117.085 108.195 116.057 108.218H52.0001C50.953 108.218 49.9488 107.88 49.2084 107.279C48.468 106.677 48.052 105.862 48.052 105.011Z" stroke="url(#paint4_linear_400_4157)" stroke-opacity="0.2"/>
<path d="M32.0999 181.986C32.1003 181.135 32.5163 180.32 33.2567 179.718C33.997 179.117 35.001 178.779 36.048 178.778H119.349C120.377 178.802 121.353 179.15 122.07 179.749C122.787 180.348 123.188 181.15 123.188 181.986C123.188 182.821 122.787 183.623 122.07 184.222C121.353 184.821 120.377 185.169 119.349 185.193H36.048C35.0009 185.193 33.9966 184.855 33.2562 184.254C32.5158 183.652 32.0999 182.836 32.0999 181.986Z" stroke="url(#paint5_linear_400_4157)" stroke-opacity="0.2"/>
<path d="M12.1331 117.843C12.1335 116.993 12.5496 116.177 13.2899 115.576C14.0302 114.974 15.0342 114.636 16.0812 114.636H101.948C102.976 114.659 103.952 115.007 104.669 115.606C105.386 116.205 105.787 117.008 105.787 117.843C105.787 118.678 105.386 119.481 104.669 120.08C103.952 120.679 102.976 121.027 101.948 121.05H16.0812C15.0341 121.05 14.0298 120.712 13.2894 120.111C12.549 119.509 12.1331 118.694 12.1331 117.843Z" stroke="url(#paint6_linear_400_4157)" stroke-opacity="0.2"/>
<path d="M12.1331 169.161C12.1335 168.311 12.5496 167.495 13.2899 166.894C14.0302 166.292 15.0342 165.954 16.0812 165.954H101.948C102.976 165.978 103.952 166.326 104.669 166.925C105.386 167.524 105.787 168.326 105.787 169.161C105.787 169.997 105.386 170.799 104.669 171.398C103.952 171.997 102.976 172.345 101.948 172.369H16.0812C15.0341 172.369 14.0298 172.031 13.2894 171.429C12.549 170.828 12.1331 170.012 12.1331 169.161Z" stroke="url(#paint7_linear_400_4157)" stroke-opacity="0.2"/>
<path d="M7 130.667C7.00041 129.817 7.4165 129.001 8.15682 128.4C8.89715 127.798 9.90113 127.46 10.9481 127.46H96.8149C97.8428 127.483 98.8189 127.832 99.5358 128.431C100.253 129.029 100.654 129.832 100.654 130.667C100.654 131.503 100.253 132.305 99.5358 132.904C98.8189 133.503 97.8428 133.851 96.8149 133.875H10.9481C9.90101 133.875 8.89679 133.537 8.15637 132.935C7.41595 132.334 7 131.518 7 130.667Z" stroke="url(#paint8_linear_400_4157)" stroke-opacity="0.2"/>
<path d="M7 143.5C7.00041 142.65 7.4165 141.834 8.15682 141.233C8.89715 140.631 9.90113 140.293 10.9481 140.293H96.8149C97.8428 140.316 98.8189 140.665 99.5358 141.264C100.253 141.862 100.654 142.665 100.654 143.5C100.654 144.336 100.253 145.138 99.5358 145.737C98.8189 146.336 97.8428 146.684 96.8149 146.708H10.9481C9.90101 146.708 8.89679 146.37 8.15637 145.768C7.41595 145.167 7 144.351 7 143.5Z" stroke="url(#paint9_linear_400_4157)" stroke-opacity="0.2"/>
<path d="M7 156.329C7.00041 155.479 7.4165 154.663 8.15682 154.062C8.89715 153.46 9.90113 153.122 10.9481 153.122H96.8149C97.8428 153.146 98.8189 153.494 99.5358 154.093C100.253 154.692 100.654 155.494 100.654 156.329C100.654 157.165 100.253 157.967 99.5358 158.566C98.8189 159.165 97.8428 159.513 96.8149 159.537H10.9481C9.90101 159.537 8.89679 159.199 8.15637 158.597C7.41595 157.996 7 157.18 7 156.329Z" stroke="url(#paint10_linear_400_4157)" stroke-opacity="0.2"/>
<path d="M246.909 105.011C246.909 104.16 246.493 103.345 245.753 102.743C245.012 102.142 244.008 101.804 242.961 101.804H178.904C177.876 101.827 176.9 102.175 176.183 102.774C175.467 103.373 175.066 104.176 175.066 105.011C175.066 105.846 175.467 106.649 176.183 107.248C176.9 107.847 177.876 108.195 178.904 108.218H242.961C244.008 108.218 245.013 107.88 245.753 107.279C246.493 106.677 246.909 105.862 246.909 105.011Z" stroke="url(#paint11_linear_400_4157)" stroke-opacity="0.2"/>
<path d="M262.861 181.986C262.861 181.135 262.445 180.32 261.705 179.718C260.964 179.117 259.96 178.779 258.913 178.778H175.612C174.584 178.802 173.608 179.15 172.891 179.749C172.175 180.348 171.774 181.15 171.774 181.986C171.774 182.821 172.175 183.623 172.891 184.222C173.608 184.821 174.584 185.169 175.612 185.193H258.913C259.96 185.193 260.965 184.855 261.705 184.254C262.445 183.652 262.861 182.836 262.861 181.986Z" stroke="url(#paint12_linear_400_4157)" stroke-opacity="0.2"/>
<path d="M282.828 117.843C282.828 116.993 282.412 116.177 281.672 115.576C280.931 114.974 279.927 114.636 278.88 114.636H193.013C191.986 114.659 191.009 115.007 190.293 115.606C189.576 116.205 189.175 117.008 189.175 117.843C189.175 118.678 189.576 119.481 190.293 120.08C191.009 120.679 191.986 121.027 193.013 121.05H278.88C279.927 121.05 280.932 120.712 281.672 120.111C282.412 119.509 282.828 118.694 282.828 117.843Z" stroke="url(#paint13_linear_400_4157)" stroke-opacity="0.2"/>
<path d="M282.828 169.161C282.828 168.311 282.412 167.495 281.672 166.894C280.931 166.292 279.927 165.954 278.88 165.954H193.013C191.986 165.978 191.009 166.326 190.293 166.925C189.576 167.524 189.175 168.326 189.175 169.161C189.175 169.997 189.576 170.799 190.293 171.398C191.009 171.997 191.986 172.345 193.013 172.369H278.88C279.927 172.369 280.932 172.031 281.672 171.429C282.412 170.828 282.828 170.012 282.828 169.161Z" stroke="url(#paint14_linear_400_4157)" stroke-opacity="0.2"/>
<path d="M287.961 130.667C287.961 129.817 287.545 129.001 286.804 128.4C286.064 127.798 285.06 127.46 284.013 127.46H198.146C197.118 127.483 196.142 127.832 195.425 128.431C194.709 129.029 194.308 129.832 194.308 130.667C194.308 131.503 194.709 132.305 195.425 132.904C196.142 133.503 197.118 133.851 198.146 133.875H284.013C285.06 133.875 286.064 133.537 286.805 132.935C287.545 132.334 287.961 131.518 287.961 130.667Z" stroke="url(#paint15_linear_400_4157)" stroke-opacity="0.2"/>
<path d="M287.961 143.5C287.961 142.65 287.545 141.834 286.804 141.233C286.064 140.631 285.06 140.293 284.013 140.293H198.146C197.118 140.316 196.142 140.665 195.425 141.264C194.709 141.862 194.308 142.665 194.308 143.5C194.308 144.336 194.709 145.138 195.425 145.737C196.142 146.336 197.118 146.684 198.146 146.708H284.013C285.06 146.708 286.064 146.37 286.805 145.768C287.545 145.167 287.961 144.351 287.961 143.5Z" stroke="url(#paint16_linear_400_4157)" stroke-opacity="0.2"/>
<path d="M287.961 156.329C287.961 155.479 287.545 154.663 286.804 154.062C286.064 153.46 285.06 153.122 284.013 153.122H198.146C197.118 153.146 196.142 153.494 195.425 154.093C194.709 154.692 194.308 155.494 194.308 156.329C194.308 157.165 194.709 157.967 195.425 158.566C196.142 159.165 197.118 159.513 198.146 159.537H284.013C285.06 159.537 286.064 159.199 286.805 158.597C287.545 157.996 287.961 157.18 287.961 156.329Z" stroke="url(#paint17_linear_400_4157)" stroke-opacity="0.2"/>
<path d="M203.287 15.2073C203.287 14.3571 202.92 13.5418 202.267 12.9407C201.614 12.3395 200.729 12.0016 199.806 12.0013H187.623C187.158 11.9892 186.695 12.0632 186.261 12.2189C185.827 12.3746 185.432 12.6089 185.098 12.9078C184.764 13.2067 184.499 13.5642 184.318 13.9592C184.137 14.3541 184.043 14.7785 184.043 15.2073C184.043 15.6361 184.137 16.0605 184.318 16.4555C184.499 16.8505 184.764 17.208 185.098 17.5069C185.432 17.8058 185.827 18.04 186.261 18.1957C186.695 18.3514 187.158 18.4254 187.623 18.4134H199.806C200.729 18.4134 201.615 18.0756 202.268 17.4743C202.92 16.8731 203.287 16.0576 203.287 15.2073Z" stroke="url(#paint18_linear_400_4157)" stroke-opacity="0.2"/>
<path d="M225.096 28.0364C225.096 27.1859 224.68 26.3703 223.939 25.7689C223.199 25.1675 222.195 24.8294 221.148 24.8291H173.769C172.741 24.8526 171.765 25.2008 171.048 25.7997C170.331 26.3986 169.93 27.201 169.93 28.0364C169.93 28.8718 170.331 29.6742 171.048 30.2731C171.765 30.8721 172.741 31.2203 173.769 31.2437H221.148C222.195 31.2437 223.199 30.9058 223.94 30.3043C224.68 29.7028 225.096 28.887 225.096 28.0364Z" stroke="url(#paint19_linear_400_4157)" stroke-opacity="0.2"/>
<path d="M237.929 40.8636C237.928 40.013 237.512 39.1974 236.772 38.596C236.032 37.9946 235.028 37.6566 233.981 37.6562H164.792C163.764 37.6797 162.788 38.0279 162.071 38.6268C161.354 39.2258 160.953 40.0282 160.953 40.8636C160.953 41.6989 161.354 42.5014 162.071 43.1003C162.788 43.6992 163.764 44.0474 164.792 44.0709H233.981C235.028 44.0709 236.032 43.733 236.772 43.1315C237.513 42.53 237.929 41.7142 237.929 40.8636Z" stroke="url(#paint20_linear_400_4157)" stroke-opacity="0.2"/>
<path d="M51.9037 53.6936C51.9041 52.8431 52.3202 52.0275 53.0605 51.4261C53.8009 50.8247 54.8049 50.4867 55.8518 50.4863H237.938C238.966 50.5098 239.942 50.858 240.659 51.4569C241.376 52.0558 241.777 52.8583 241.777 53.6936C241.777 54.529 241.376 55.3314 240.659 55.9304C239.942 56.5293 238.966 56.8775 237.938 56.901H55.8518C54.8047 56.901 53.8005 56.563 53.0601 55.9616C52.3197 55.3601 51.9037 54.5443 51.9037 53.6936Z" stroke="url(#paint21_linear_400_4157)" stroke-opacity="0.2"/>
<path d="M51.9037 53.6936C51.9041 52.8431 52.3202 52.0275 53.0605 51.4261C53.8009 50.8247 54.8049 50.4867 55.8518 50.4863H237.938C238.966 50.5098 239.942 50.858 240.659 51.4569C241.376 52.0558 241.777 52.8583 241.777 53.6936C241.777 54.529 241.376 55.3314 240.659 55.9304C239.942 56.5293 238.966 56.8775 237.938 56.901H55.8518C54.8047 56.901 53.8005 56.563 53.0601 55.9616C52.3197 55.3601 51.9037 54.5443 51.9037 53.6936Z" stroke="url(#paint22_linear_400_4157)" stroke-opacity="0.2"/>
<path d="M57.0366 66.5247C57.037 65.6742 57.453 64.8586 58.1934 64.2572C58.9337 63.6557 59.9377 63.3177 60.9847 63.3174H231.525C232.552 63.3408 233.529 63.689 234.245 64.288C234.962 64.8869 235.363 65.6893 235.363 66.5247C235.363 67.3601 234.962 68.1625 234.245 68.7614C233.529 69.3603 232.552 69.7086 231.525 69.732H60.9847C59.9376 69.732 58.9333 69.3941 58.1929 68.7926C57.4525 68.1911 57.0366 67.3753 57.0366 66.5247Z" stroke="url(#paint23_linear_400_4157)" stroke-opacity="0.2"/>
<path d="M62.1694 79.3489C62.1698 78.4984 62.5859 77.6828 63.3263 77.0814C64.0666 76.48 65.0706 76.1419 66.1175 76.1416H227.677C228.705 76.1651 229.681 76.5133 230.398 77.1122C231.115 77.7111 231.516 78.5135 231.516 79.3489C231.516 80.1843 231.115 80.9867 230.398 81.5856C229.681 82.1846 228.705 82.5328 227.677 82.5562H66.1175C65.0704 82.5562 64.0662 82.2183 63.3258 81.6168C62.5854 81.0153 62.1694 80.1995 62.1694 79.3489Z" stroke="url(#paint24_linear_400_4157)" stroke-opacity="0.2"/>
<path d="M90.3892 271.793C90.3896 272.643 90.7564 273.458 91.4091 274.059C92.0619 274.661 92.947 274.998 93.8701 274.999H106.053C106.518 275.011 106.982 274.937 107.415 274.781C107.849 274.625 108.245 274.391 108.578 274.092C108.912 273.793 109.177 273.436 109.359 273.041C109.54 272.646 109.633 272.221 109.633 271.793C109.633 271.364 109.54 270.939 109.359 270.545C109.177 270.15 108.912 269.792 108.578 269.493C108.245 269.194 107.849 268.96 107.415 268.804C106.982 268.649 106.518 268.575 106.053 268.587H93.8701C92.9469 268.587 92.0615 268.924 91.4087 269.526C90.756 270.127 90.3892 270.942 90.3892 271.793Z" stroke="url(#paint25_linear_400_4157)" stroke-opacity="0.2"/>
<path d="M68.5798 258.964C68.5802 259.814 68.9963 260.63 69.7366 261.231C70.477 261.833 71.481 262.171 72.5279 262.171H119.907C120.935 262.147 121.911 261.799 122.628 261.2C123.345 260.601 123.746 259.799 123.746 258.964C123.746 258.128 123.345 257.326 122.628 256.727C121.911 256.128 120.935 255.78 119.907 255.756H72.5279C71.4808 255.756 70.4766 256.094 69.7362 256.696C68.9958 257.297 68.5798 258.113 68.5798 258.964Z" stroke="url(#paint26_linear_400_4157)" stroke-opacity="0.2"/>
<path d="M55.7516 246.136C55.7521 246.987 56.1681 247.803 56.9085 248.404C57.6488 249.005 58.6528 249.343 59.6998 249.344H128.888C129.916 249.32 130.893 248.972 131.609 248.373C132.326 247.774 132.727 246.972 132.727 246.136C132.727 245.301 132.326 244.499 131.609 243.9C130.893 243.301 129.916 242.953 128.888 242.929H59.6998C58.6527 242.929 57.6484 243.267 56.908 243.869C56.1676 244.47 55.7516 245.286 55.7516 246.136Z" stroke="url(#paint27_linear_400_4157)" stroke-opacity="0.2"/>
<path d="M203.287 271.793C203.287 272.643 202.92 273.458 202.267 274.059C201.614 274.661 200.729 274.998 199.806 274.999H187.623C187.158 275.011 186.695 274.937 186.261 274.781C185.827 274.625 185.432 274.391 185.098 274.092C184.764 273.793 184.499 273.436 184.318 273.041C184.137 272.646 184.043 272.221 184.043 271.793C184.043 271.364 184.137 270.939 184.318 270.545C184.499 270.15 184.764 269.792 185.098 269.493C185.432 269.194 185.827 268.96 186.261 268.804C186.695 268.649 187.158 268.575 187.623 268.587H199.806C200.729 268.587 201.615 268.924 202.268 269.526C202.92 270.127 203.287 270.942 203.287 271.793Z" stroke="url(#paint28_linear_400_4157)" stroke-opacity="0.2"/>
<path d="M225.096 258.964C225.096 259.814 224.68 260.63 223.939 261.231C223.199 261.833 222.195 262.171 221.148 262.171H173.769C172.741 262.147 171.765 261.799 171.048 261.2C170.331 260.601 169.93 259.799 169.93 258.964C169.93 258.128 170.331 257.326 171.048 256.727C171.765 256.128 172.741 255.78 173.769 255.756H221.148C222.195 255.756 223.199 256.094 223.94 256.696C224.68 257.297 225.096 258.113 225.096 258.964Z" stroke="url(#paint29_linear_400_4157)" stroke-opacity="0.2"/>
<path d="M237.929 246.136C237.928 246.987 237.512 247.803 236.772 248.404C236.032 249.005 235.028 249.343 233.981 249.344H164.792C163.764 249.32 162.788 248.972 162.071 248.373C161.354 247.774 160.953 246.972 160.953 246.136C160.953 245.301 161.354 244.499 162.071 243.9C162.788 243.301 163.764 242.953 164.792 242.929H233.981C235.028 242.929 236.032 243.267 236.772 243.869C237.513 244.47 237.929 245.286 237.929 246.136Z" stroke="url(#paint30_linear_400_4157)" stroke-opacity="0.2"/>
<path d="M51.9037 233.306C51.9041 234.157 52.3202 234.972 53.0605 235.574C53.8009 236.175 54.8049 236.513 55.8518 236.514H237.938C238.966 236.49 239.942 236.142 240.659 235.543C241.376 234.944 241.777 234.142 241.777 233.306C241.777 232.471 241.376 231.669 240.659 231.07C239.942 230.471 238.966 230.122 237.938 230.099H55.8518C54.8047 230.099 53.8005 230.437 53.0601 231.038C52.3197 231.64 51.9037 232.456 51.9037 233.306Z" stroke="url(#paint31_linear_400_4157)" stroke-opacity="0.2"/>
<path d="M57.0366 220.475C57.037 221.326 57.453 222.141 58.1934 222.743C58.9337 223.344 59.9377 223.682 60.9847 223.683H231.525C232.552 223.659 233.529 223.311 234.245 222.712C234.962 222.113 235.363 221.311 235.363 220.475C235.363 219.64 234.962 218.838 234.245 218.239C233.529 217.64 232.552 217.291 231.525 217.268H60.9847C59.9376 217.268 58.9333 217.606 58.1929 218.207C57.4525 218.809 57.0366 219.625 57.0366 220.475Z" stroke="url(#paint32_linear_400_4157)" stroke-opacity="0.2"/>
<path d="M62.1694 207.651C62.1698 208.502 62.5859 209.317 63.3263 209.919C64.0666 210.52 65.0706 210.858 66.1175 210.858H227.677C228.705 210.835 229.681 210.487 230.398 209.888C231.115 209.289 231.516 208.486 231.516 207.651C231.516 206.816 231.115 206.013 230.398 205.414C229.681 204.815 228.705 204.467 227.677 204.444H66.1175C65.0704 204.444 64.0662 204.782 63.3258 205.383C62.5854 205.985 62.1694 206.8 62.1694 207.651Z" stroke="url(#paint33_linear_400_4157)" stroke-opacity="0.2"/>
<path d="M55.7517 194.818C55.7521 195.669 56.1682 196.484 56.9085 197.086C57.6489 197.687 58.6528 198.025 59.6998 198.025H139.152C140.18 198.002 141.156 197.654 141.873 197.055C142.59 196.456 142.991 195.653 142.991 194.818C142.991 193.983 142.59 193.18 141.873 192.581C141.156 191.982 140.18 191.634 139.152 191.611H59.6998C58.6527 191.611 57.6485 191.949 56.9081 192.55C56.1677 193.152 55.7517 193.967 55.7517 194.818Z" stroke="url(#paint34_linear_400_4157)" stroke-opacity="0.2"/>
<path d="M148.781 194.818C148.781 195.669 149.198 196.484 149.938 197.086C150.678 197.687 151.682 198.025 152.729 198.025H232.181C233.209 198.002 234.185 197.654 234.902 197.055C235.619 196.456 236.02 195.653 236.02 194.818C236.02 193.983 235.619 193.18 234.902 192.581C234.185 191.982 233.209 191.634 232.181 191.611H152.729C151.682 191.611 150.678 191.949 149.937 192.55C149.197 193.152 148.781 193.967 148.781 194.818Z" stroke="url(#paint35_linear_400_4157)" stroke-opacity="0.2"/>
<path d="M55.7517 92.1814C55.7521 93.0319 56.1682 93.8475 56.9085 94.4489C57.6489 95.0503 58.6528 95.3883 59.6998 95.3887H139.152C140.18 95.3652 141.156 95.017 141.873 94.4181C142.59 93.8192 142.991 93.0167 142.991 92.1814C142.991 91.346 142.59 90.5436 141.873 89.9446C141.156 89.3457 140.18 88.9975 139.152 88.974H59.6998C58.6527 88.974 57.6485 89.312 56.9081 89.9134C56.1677 90.5149 55.7517 91.3307 55.7517 92.1814Z" stroke="url(#paint36_linear_400_4157)" stroke-opacity="0.2"/>
<path d="M146.84 92.1814C146.84 93.0319 147.256 93.8475 147.997 94.4489C148.737 95.0503 149.741 95.3883 150.788 95.3887H230.24C231.268 95.3652 232.244 95.017 232.961 94.4181C233.678 93.8192 234.079 93.0167 234.079 92.1814C234.079 91.346 233.678 90.5436 232.961 89.9446C232.244 89.3457 231.268 88.9975 230.24 88.974H150.788C149.741 88.974 148.737 89.312 147.996 89.9134C147.256 90.5149 146.84 91.3307 146.84 92.1814Z" stroke="url(#paint37_linear_400_4157)" stroke-opacity="0.2"/>
</g>
<path d="M90.3892 15.2073C90.3896 14.3571 90.7564 13.5418 91.4091 12.9407C92.0619 12.3395 92.947 12.0016 93.8701 12.0013H106.053C106.518 11.9892 106.982 12.0632 107.415 12.2189C107.849 12.3746 108.245 12.6089 108.578 12.9078C108.912 13.2067 109.177 13.5642 109.359 13.9592C109.54 14.3541 109.633 14.7785 109.633 15.2073C109.633 15.6361 109.54 16.0605 109.359 16.4555C109.177 16.8505 108.912 17.208 108.578 17.5069C108.245 17.8058 107.849 18.04 107.415 18.1957C106.982 18.3514 106.518 18.4254 106.053 18.4134H93.8701C92.9469 18.4134 92.0615 18.0756 91.4087 17.4743C90.756 16.8731 90.3892 16.0576 90.3892 15.2073Z" stroke="url(#paint38_linear_400_4157)" stroke-opacity="0.2"/>
<path d="M68.5798 28.0364C68.5802 27.1859 68.9963 26.3703 69.7366 25.7689C70.477 25.1675 71.481 24.8294 72.5279 24.8291H119.907C120.935 24.8526 121.911 25.2008 122.628 25.7997C123.345 26.3986 123.746 27.201 123.746 28.0364C123.746 28.8718 123.345 29.6742 122.628 30.2731C121.911 30.8721 120.935 31.2203 119.907 31.2437H72.5279C71.4808 31.2437 70.4766 30.9058 69.7362 30.3043C68.9958 29.7028 68.5798 28.887 68.5798 28.0364Z" stroke="url(#paint39_linear_400_4157)" stroke-opacity="0.2"/>
<path d="M55.7516 40.8636C55.7521 40.013 56.1681 39.1974 56.9085 38.596C57.6488 37.9946 58.6528 37.6566 59.6998 37.6562H128.888C129.916 37.6797 130.893 38.0279 131.609 38.6268C132.326 39.2258 132.727 40.0282 132.727 40.8636C132.727 41.6989 132.326 42.5014 131.609 43.1003C130.893 43.6992 129.916 44.0474 128.888 44.0709H59.6998C58.6527 44.0709 57.6484 43.733 56.908 43.1315C56.1676 42.53 55.7516 41.7142 55.7516 40.8636Z" stroke="url(#paint40_linear_400_4157)" stroke-opacity="0.2"/>
<path d="M48.052 105.011C48.0524 104.16 48.4685 103.345 49.2088 102.743C49.9492 102.142 50.9531 101.804 52.0001 101.804H116.057C117.085 101.827 118.061 102.175 118.778 102.774C119.495 103.373 119.896 104.176 119.896 105.011C119.896 105.846 119.495 106.649 118.778 107.248C118.061 107.847 117.085 108.195 116.057 108.218H52.0001C50.953 108.218 49.9488 107.88 49.2084 107.279C48.468 106.677 48.052 105.862 48.052 105.011Z" stroke="url(#paint41_linear_400_4157)" stroke-opacity="0.2"/>
<path d="M32.0999 181.986C32.1003 181.135 32.5163 180.32 33.2567 179.718C33.997 179.117 35.001 178.779 36.048 178.778H119.349C120.377 178.802 121.353 179.15 122.07 179.749C122.787 180.348 123.188 181.15 123.188 181.986C123.188 182.821 122.787 183.623 122.07 184.222C121.353 184.821 120.377 185.169 119.349 185.193H36.048C35.0009 185.193 33.9966 184.855 33.2562 184.254C32.5158 183.652 32.0999 182.836 32.0999 181.986Z" stroke="url(#paint42_linear_400_4157)" stroke-opacity="0.2"/>
<path d="M12.1331 117.843C12.1335 116.993 12.5496 116.177 13.2899 115.576C14.0302 114.974 15.0342 114.636 16.0812 114.636H101.948C102.976 114.659 103.952 115.007 104.669 115.606C105.386 116.205 105.787 117.008 105.787 117.843C105.787 118.678 105.386 119.481 104.669 120.08C103.952 120.679 102.976 121.027 101.948 121.05H16.0812C15.0341 121.05 14.0298 120.712 13.2894 120.111C12.549 119.509 12.1331 118.694 12.1331 117.843Z" stroke="url(#paint43_linear_400_4157)" stroke-opacity="0.2"/>
<path d="M12.1331 169.161C12.1335 168.311 12.5496 167.495 13.2899 166.894C14.0302 166.292 15.0342 165.954 16.0812 165.954H101.948C102.976 165.978 103.952 166.326 104.669 166.925C105.386 167.524 105.787 168.326 105.787 169.161C105.787 169.997 105.386 170.799 104.669 171.398C103.952 171.997 102.976 172.345 101.948 172.369H16.0812C15.0341 172.369 14.0298 172.031 13.2894 171.429C12.549 170.828 12.1331 170.012 12.1331 169.161Z" stroke="url(#paint44_linear_400_4157)" stroke-opacity="0.2"/>
<path d="M7 130.667C7.00041 129.817 7.4165 129.001 8.15682 128.4C8.89715 127.798 9.90113 127.46 10.9481 127.46H96.8149C97.8428 127.483 98.8189 127.832 99.5358 128.431C100.253 129.029 100.654 129.832 100.654 130.667C100.654 131.503 100.253 132.305 99.5358 132.904C98.8189 133.503 97.8428 133.851 96.8149 133.875H10.9481C9.90101 133.875 8.89679 133.537 8.15637 132.935C7.41595 132.334 7 131.518 7 130.667Z" stroke="url(#paint45_linear_400_4157)" stroke-opacity="0.2"/>
<path d="M7 143.5C7.00041 142.65 7.4165 141.834 8.15682 141.233C8.89715 140.631 9.90113 140.293 10.9481 140.293H96.8149C97.8428 140.316 98.8189 140.665 99.5358 141.264C100.253 141.862 100.654 142.665 100.654 143.5C100.654 144.336 100.253 145.138 99.5358 145.737C98.8189 146.336 97.8428 146.684 96.8149 146.708H10.9481C9.90101 146.708 8.89679 146.37 8.15637 145.768C7.41595 145.167 7 144.351 7 143.5Z" stroke="url(#paint46_linear_400_4157)" stroke-opacity="0.2"/>
<path d="M7 156.329C7.00041 155.479 7.4165 154.663 8.15682 154.062C8.89715 153.46 9.90113 153.122 10.9481 153.122H96.8149C97.8428 153.146 98.8189 153.494 99.5358 154.093C100.253 154.692 100.654 155.494 100.654 156.329C100.654 157.165 100.253 157.967 99.5358 158.566C98.8189 159.165 97.8428 159.513 96.8149 159.537H10.9481C9.90101 159.537 8.89679 159.199 8.15637 158.597C7.41595 157.996 7 157.18 7 156.329Z" stroke="url(#paint47_linear_400_4157)" stroke-opacity="0.2"/>
<path d="M246.909 105.011C246.909 104.16 246.493 103.345 245.753 102.743C245.012 102.142 244.008 101.804 242.961 101.804H178.904C177.876 101.827 176.9 102.175 176.183 102.774C175.467 103.373 175.066 104.176 175.066 105.011C175.066 105.846 175.467 106.649 176.183 107.248C176.9 107.847 177.876 108.195 178.904 108.218H242.961C244.008 108.218 245.013 107.88 245.753 107.279C246.493 106.677 246.909 105.862 246.909 105.011Z" stroke="url(#paint48_linear_400_4157)" stroke-opacity="0.2"/>
<path d="M262.861 181.986C262.861 181.135 262.445 180.32 261.705 179.718C260.964 179.117 259.96 178.779 258.913 178.778H175.612C174.584 178.802 173.608 179.15 172.891 179.749C172.175 180.348 171.774 181.15 171.774 181.986C171.774 182.821 172.175 183.623 172.891 184.222C173.608 184.821 174.584 185.169 175.612 185.193H258.913C259.96 185.193 260.965 184.855 261.705 184.254C262.445 183.652 262.861 182.836 262.861 181.986Z" stroke="url(#paint49_linear_400_4157)" stroke-opacity="0.2"/>
<path d="M282.828 117.843C282.828 116.993 282.412 116.177 281.672 115.576C280.931 114.974 279.927 114.636 278.88 114.636H193.013C191.986 114.659 191.009 115.007 190.293 115.606C189.576 116.205 189.175 117.008 189.175 117.843C189.175 118.678 189.576 119.481 190.293 120.08C191.009 120.679 191.986 121.027 193.013 121.05H278.88C279.927 121.05 280.932 120.712 281.672 120.111C282.412 119.509 282.828 118.694 282.828 117.843Z" stroke="url(#paint50_linear_400_4157)" stroke-opacity="0.2"/>
<path d="M282.828 169.161C282.828 168.311 282.412 167.495 281.672 166.894C280.931 166.292 279.927 165.954 278.88 165.954H193.013C191.986 165.978 191.009 166.326 190.293 166.925C189.576 167.524 189.175 168.326 189.175 169.161C189.175 169.997 189.576 170.799 190.293 171.398C191.009 171.997 191.986 172.345 193.013 172.369H278.88C279.927 172.369 280.932 172.031 281.672 171.429C282.412 170.828 282.828 170.012 282.828 169.161Z" stroke="url(#paint51_linear_400_4157)" stroke-opacity="0.2"/>
<path d="M287.961 130.667C287.961 129.817 287.545 129.001 286.804 128.4C286.064 127.798 285.06 127.46 284.013 127.46H198.146C197.118 127.483 196.142 127.832 195.425 128.431C194.709 129.029 194.308 129.832 194.308 130.667C194.308 131.503 194.709 132.305 195.425 132.904C196.142 133.503 197.118 133.851 198.146 133.875H284.013C285.06 133.875 286.064 133.537 286.805 132.935C287.545 132.334 287.961 131.518 287.961 130.667Z" stroke="url(#paint52_linear_400_4157)" stroke-opacity="0.2"/>
<path d="M287.961 143.5C287.961 142.65 287.545 141.834 286.804 141.233C286.064 140.631 285.06 140.293 284.013 140.293H198.146C197.118 140.316 196.142 140.665 195.425 141.264C194.709 141.862 194.308 142.665 194.308 143.5C194.308 144.336 194.709 145.138 195.425 145.737C196.142 146.336 197.118 146.684 198.146 146.708H284.013C285.06 146.708 286.064 146.37 286.805 145.768C287.545 145.167 287.961 144.351 287.961 143.5Z" stroke="url(#paint53_linear_400_4157)" stroke-opacity="0.2"/>
<path d="M287.961 156.329C287.961 155.479 287.545 154.663 286.804 154.062C286.064 153.46 285.06 153.122 284.013 153.122H198.146C197.118 153.146 196.142 153.494 195.425 154.093C194.709 154.692 194.308 155.494 194.308 156.329C194.308 157.165 194.709 157.967 195.425 158.566C196.142 159.165 197.118 159.513 198.146 159.537H284.013C285.06 159.537 286.064 159.199 286.805 158.597C287.545 157.996 287.961 157.18 287.961 156.329Z" stroke="url(#paint54_linear_400_4157)" stroke-opacity="0.2"/>
<path d="M203.287 15.2073C203.287 14.3571 202.92 13.5418 202.267 12.9407C201.614 12.3395 200.729 12.0016 199.806 12.0013H187.623C187.158 11.9892 186.695 12.0632 186.261 12.2189C185.827 12.3746 185.432 12.6089 185.098 12.9078C184.764 13.2067 184.499 13.5642 184.318 13.9592C184.137 14.3541 184.043 14.7785 184.043 15.2073C184.043 15.6361 184.137 16.0605 184.318 16.4555C184.499 16.8505 184.764 17.208 185.098 17.5069C185.432 17.8058 185.827 18.04 186.261 18.1957C186.695 18.3514 187.158 18.4254 187.623 18.4134H199.806C200.729 18.4134 201.615 18.0756 202.268 17.4743C202.92 16.8731 203.287 16.0576 203.287 15.2073Z" stroke="url(#paint55_linear_400_4157)" stroke-opacity="0.2"/>
<path d="M225.096 28.0364C225.096 27.1859 224.68 26.3703 223.939 25.7689C223.199 25.1675 222.195 24.8294 221.148 24.8291H173.769C172.741 24.8526 171.765 25.2008 171.048 25.7997C170.331 26.3986 169.93 27.201 169.93 28.0364C169.93 28.8718 170.331 29.6742 171.048 30.2731C171.765 30.8721 172.741 31.2203 173.769 31.2437H221.148C222.195 31.2437 223.199 30.9058 223.94 30.3043C224.68 29.7028 225.096 28.887 225.096 28.0364Z" stroke="url(#paint56_linear_400_4157)" stroke-opacity="0.2"/>
<path d="M237.929 40.8636C237.928 40.013 237.512 39.1974 236.772 38.596C236.032 37.9946 235.028 37.6566 233.981 37.6562H164.792C163.764 37.6797 162.788 38.0279 162.071 38.6268C161.354 39.2258 160.953 40.0282 160.953 40.8636C160.953 41.6989 161.354 42.5014 162.071 43.1003C162.788 43.6992 163.764 44.0474 164.792 44.0709H233.981C235.028 44.0709 236.032 43.733 236.772 43.1315C237.513 42.53 237.929 41.7142 237.929 40.8636Z" stroke="url(#paint57_linear_400_4157)" stroke-opacity="0.2"/>
<path d="M51.9037 53.6936C51.9041 52.8431 52.3202 52.0275 53.0605 51.4261C53.8009 50.8247 54.8049 50.4867 55.8518 50.4863H237.938C238.966 50.5098 239.942 50.858 240.659 51.4569C241.376 52.0558 241.777 52.8583 241.777 53.6936C241.777 54.529 241.376 55.3314 240.659 55.9304C239.942 56.5293 238.966 56.8775 237.938 56.901H55.8518C54.8047 56.901 53.8005 56.563 53.0601 55.9616C52.3197 55.3601 51.9037 54.5443 51.9037 53.6936Z" stroke="url(#paint58_linear_400_4157)" stroke-opacity="0.2"/>
<path d="M51.9037 53.6936C51.9041 52.8431 52.3202 52.0275 53.0605 51.4261C53.8009 50.8247 54.8049 50.4867 55.8518 50.4863H237.938C238.966 50.5098 239.942 50.858 240.659 51.4569C241.376 52.0558 241.777 52.8583 241.777 53.6936C241.777 54.529 241.376 55.3314 240.659 55.9304C239.942 56.5293 238.966 56.8775 237.938 56.901H55.8518C54.8047 56.901 53.8005 56.563 53.0601 55.9616C52.3197 55.3601 51.9037 54.5443 51.9037 53.6936Z" stroke="url(#paint59_linear_400_4157)" stroke-opacity="0.2"/>
<path d="M57.0366 66.5247C57.037 65.6742 57.453 64.8586 58.1934 64.2572C58.9337 63.6557 59.9377 63.3177 60.9847 63.3174H231.525C232.552 63.3408 233.529 63.689 234.245 64.288C234.962 64.8869 235.363 65.6893 235.363 66.5247C235.363 67.3601 234.962 68.1625 234.245 68.7614C233.529 69.3603 232.552 69.7086 231.525 69.732H60.9847C59.9376 69.732 58.9333 69.3941 58.1929 68.7926C57.4525 68.1911 57.0366 67.3753 57.0366 66.5247Z" stroke="url(#paint60_linear_400_4157)" stroke-opacity="0.2"/>
<path d="M62.1694 79.3489C62.1698 78.4984 62.5859 77.6828 63.3263 77.0814C64.0666 76.48 65.0706 76.1419 66.1175 76.1416H227.677C228.705 76.1651 229.681 76.5133 230.398 77.1122C231.115 77.7111 231.516 78.5135 231.516 79.3489C231.516 80.1843 231.115 80.9867 230.398 81.5856C229.681 82.1846 228.705 82.5328 227.677 82.5562H66.1175C65.0704 82.5562 64.0662 82.2183 63.3258 81.6168C62.5854 81.0153 62.1694 80.1995 62.1694 79.3489Z" stroke="url(#paint61_linear_400_4157)" stroke-opacity="0.2"/>
<path d="M90.3892 271.793C90.3896 272.643 90.7564 273.458 91.4091 274.059C92.0619 274.661 92.947 274.998 93.8701 274.999H106.053C106.518 275.011 106.982 274.937 107.415 274.781C107.849 274.625 108.245 274.391 108.578 274.092C108.912 273.793 109.177 273.436 109.359 273.041C109.54 272.646 109.633 272.221 109.633 271.793C109.633 271.364 109.54 270.939 109.359 270.545C109.177 270.15 108.912 269.792 108.578 269.493C108.245 269.194 107.849 268.96 107.415 268.804C106.982 268.649 106.518 268.575 106.053 268.587H93.8701C92.9469 268.587 92.0615 268.924 91.4087 269.526C90.756 270.127 90.3892 270.942 90.3892 271.793Z" stroke="url(#paint62_linear_400_4157)" stroke-opacity="0.2"/>
<path d="M68.5798 258.964C68.5802 259.814 68.9963 260.63 69.7366 261.231C70.477 261.833 71.481 262.171 72.5279 262.171H119.907C120.935 262.147 121.911 261.799 122.628 261.2C123.345 260.601 123.746 259.799 123.746 258.964C123.746 258.128 123.345 257.326 122.628 256.727C121.911 256.128 120.935 255.78 119.907 255.756H72.5279C71.4808 255.756 70.4766 256.094 69.7362 256.696C68.9958 257.297 68.5798 258.113 68.5798 258.964Z" stroke="url(#paint63_linear_400_4157)" stroke-opacity="0.2"/>
<path d="M55.7516 246.136C55.7521 246.987 56.1681 247.803 56.9085 248.404C57.6488 249.005 58.6528 249.343 59.6998 249.344H128.888C129.916 249.32 130.893 248.972 131.609 248.373C132.326 247.774 132.727 246.972 132.727 246.136C132.727 245.301 132.326 244.499 131.609 243.9C130.893 243.301 129.916 242.953 128.888 242.929H59.6998C58.6527 242.929 57.6484 243.267 56.908 243.869C56.1676 244.47 55.7516 245.286 55.7516 246.136Z" stroke="url(#paint64_linear_400_4157)" stroke-opacity="0.2"/>
<path d="M203.287 271.793C203.287 272.643 202.92 273.458 202.267 274.059C201.614 274.661 200.729 274.998 199.806 274.999H187.623C187.158 275.011 186.695 274.937 186.261 274.781C185.827 274.625 185.432 274.391 185.098 274.092C184.764 273.793 184.499 273.436 184.318 273.041C184.137 272.646 184.043 272.221 184.043 271.793C184.043 271.364 184.137 270.939 184.318 270.545C184.499 270.15 184.764 269.792 185.098 269.493C185.432 269.194 185.827 268.96 186.261 268.804C186.695 268.649 187.158 268.575 187.623 268.587H199.806C200.729 268.587 201.615 268.924 202.268 269.526C202.92 270.127 203.287 270.942 203.287 271.793Z" stroke="url(#paint65_linear_400_4157)" stroke-opacity="0.2"/>
<path d="M225.096 258.964C225.096 259.814 224.68 260.63 223.939 261.231C223.199 261.833 222.195 262.171 221.148 262.171H173.769C172.741 262.147 171.765 261.799 171.048 261.2C170.331 260.601 169.93 259.799 169.93 258.964C169.93 258.128 170.331 257.326 171.048 256.727C171.765 256.128 172.741 255.78 173.769 255.756H221.148C222.195 255.756 223.199 256.094 223.94 256.696C224.68 257.297 225.096 258.113 225.096 258.964Z" stroke="url(#paint66_linear_400_4157)" stroke-opacity="0.2"/>
<path d="M237.929 246.136C237.928 246.987 237.512 247.803 236.772 248.404C236.032 249.005 235.028 249.343 233.981 249.344H164.792C163.764 249.32 162.788 248.972 162.071 248.373C161.354 247.774 160.953 246.972 160.953 246.136C160.953 245.301 161.354 244.499 162.071 243.9C162.788 243.301 163.764 242.953 164.792 242.929H233.981C235.028 242.929 236.032 243.267 236.772 243.869C237.513 244.47 237.929 245.286 237.929 246.136Z" stroke="url(#paint67_linear_400_4157)" stroke-opacity="0.2"/>
<path d="M51.9037 233.306C51.9041 234.157 52.3202 234.972 53.0605 235.574C53.8009 236.175 54.8049 236.513 55.8518 236.514H237.938C238.966 236.49 239.942 236.142 240.659 235.543C241.376 234.944 241.777 234.142 241.777 233.306C241.777 232.471 241.376 231.669 240.659 231.07C239.942 230.471 238.966 230.122 237.938 230.099H55.8518C54.8047 230.099 53.8005 230.437 53.0601 231.038C52.3197 231.64 51.9037 232.456 51.9037 233.306Z" stroke="url(#paint68_linear_400_4157)" stroke-opacity="0.2"/>
<path d="M57.0366 220.475C57.037 221.326 57.453 222.141 58.1934 222.743C58.9337 223.344 59.9377 223.682 60.9847 223.683H231.525C232.552 223.659 233.529 223.311 234.245 222.712C234.962 222.113 235.363 221.311 235.363 220.475C235.363 219.64 234.962 218.838 234.245 218.239C233.529 217.64 232.552 217.291 231.525 217.268H60.9847C59.9376 217.268 58.9333 217.606 58.1929 218.207C57.4525 218.809 57.0366 219.625 57.0366 220.475Z" stroke="url(#paint69_linear_400_4157)" stroke-opacity="0.2"/>
<path d="M62.1694 207.651C62.1698 208.502 62.5859 209.317 63.3263 209.919C64.0666 210.52 65.0706 210.858 66.1175 210.858H227.677C228.705 210.835 229.681 210.487 230.398 209.888C231.115 209.289 231.516 208.486 231.516 207.651C231.516 206.816 231.115 206.013 230.398 205.414C229.681 204.815 228.705 204.467 227.677 204.444H66.1175C65.0704 204.444 64.0662 204.782 63.3258 205.383C62.5854 205.985 62.1694 206.8 62.1694 207.651Z" stroke="url(#paint70_linear_400_4157)" stroke-opacity="0.2"/>
<path d="M55.7517 194.818C55.7521 195.669 56.1682 196.484 56.9085 197.086C57.6489 197.687 58.6528 198.025 59.6998 198.025H139.152C140.18 198.002 141.156 197.654 141.873 197.055C142.59 196.456 142.991 195.653 142.991 194.818C142.991 193.983 142.59 193.18 141.873 192.581C141.156 191.982 140.18 191.634 139.152 191.611H59.6998C58.6527 191.611 57.6485 191.949 56.9081 192.55C56.1677 193.152 55.7517 193.967 55.7517 194.818Z" stroke="url(#paint71_linear_400_4157)" stroke-opacity="0.2"/>
<path d="M148.781 194.818C148.781 195.669 149.198 196.484 149.938 197.086C150.678 197.687 151.682 198.025 152.729 198.025H232.181C233.209 198.002 234.185 197.654 234.902 197.055C235.619 196.456 236.02 195.653 236.02 194.818C236.02 193.983 235.619 193.18 234.902 192.581C234.185 191.982 233.209 191.634 232.181 191.611H152.729C151.682 191.611 150.678 191.949 149.937 192.55C149.197 193.152 148.781 193.967 148.781 194.818Z" stroke="url(#paint72_linear_400_4157)" stroke-opacity="0.2"/>
<path d="M55.7517 92.1814C55.7521 93.0319 56.1682 93.8475 56.9085 94.4489C57.6489 95.0503 58.6528 95.3883 59.6998 95.3887H139.152C140.18 95.3652 141.156 95.017 141.873 94.4181C142.59 93.8192 142.991 93.0167 142.991 92.1814C142.991 91.346 142.59 90.5436 141.873 89.9446C141.156 89.3457 140.18 88.9975 139.152 88.974H59.6998C58.6527 88.974 57.6485 89.312 56.9081 89.9134C56.1677 90.5149 55.7517 91.3307 55.7517 92.1814Z" stroke="url(#paint73_linear_400_4157)" stroke-opacity="0.2"/>
<path d="M146.84 92.1814C146.84 93.0319 147.256 93.8475 147.997 94.4489C148.737 95.0503 149.741 95.3883 150.788 95.3887H230.24C231.268 95.3652 232.244 95.017 232.961 94.4181C233.678 93.8192 234.079 93.0167 234.079 92.1814C234.079 91.346 233.678 90.5436 232.961 89.9446C232.244 89.3457 231.268 88.9975 230.24 88.974H150.788C149.741 88.974 148.737 89.312 147.996 89.9134C147.256 90.5149 146.84 91.3307 146.84 92.1814Z" stroke="url(#paint74_linear_400_4157)" stroke-opacity="0.2"/>
<path d="M90.3892 15.2073C90.3896 14.3571 90.7564 13.5418 91.4091 12.9407C92.0619 12.3395 92.947 12.0016 93.8701 12.0013H106.053C106.518 11.9892 106.982 12.0632 107.415 12.2189C107.849 12.3746 108.245 12.6089 108.578 12.9078C108.912 13.2067 109.177 13.5642 109.359 13.9592C109.54 14.3541 109.633 14.7785 109.633 15.2073C109.633 15.6361 109.54 16.0605 109.359 16.4555C109.177 16.8505 108.912 17.208 108.578 17.5069C108.245 17.8058 107.849 18.04 107.415 18.1957C106.982 18.3514 106.518 18.4254 106.053 18.4134H93.8701C92.9469 18.4134 92.0615 18.0756 91.4087 17.4743C90.756 16.8731 90.3892 16.0576 90.3892 15.2073Z" stroke="url(#paint75_radial_400_4157)"/>
<path d="M68.5798 28.0364C68.5802 27.1859 68.9963 26.3703 69.7366 25.7689C70.477 25.1675 71.481 24.8294 72.5279 24.8291H119.907C120.935 24.8526 121.911 25.2008 122.628 25.7997C123.345 26.3986 123.746 27.201 123.746 28.0364C123.746 28.8718 123.345 29.6742 122.628 30.2731C121.911 30.8721 120.935 31.2203 119.907 31.2437H72.5279C71.4808 31.2437 70.4766 30.9058 69.7362 30.3043C68.9958 29.7028 68.5798 28.887 68.5798 28.0364Z" stroke="url(#paint76_radial_400_4157)"/>
<path d="M55.7516 40.8636C55.7521 40.013 56.1681 39.1974 56.9085 38.596C57.6488 37.9946 58.6528 37.6566 59.6998 37.6562H128.888C129.916 37.6797 130.893 38.0279 131.609 38.6268C132.326 39.2258 132.727 40.0282 132.727 40.8636C132.727 41.6989 132.326 42.5014 131.609 43.1003C130.893 43.6992 129.916 44.0474 128.888 44.0709H59.6998C58.6527 44.0709 57.6484 43.733 56.908 43.1315C56.1676 42.53 55.7516 41.7142 55.7516 40.8636Z" stroke="url(#paint77_radial_400_4157)"/>
<path d="M48.052 105.011C48.0524 104.16 48.4685 103.345 49.2088 102.743C49.9492 102.142 50.9531 101.804 52.0001 101.804H116.057C117.085 101.827 118.061 102.175 118.778 102.774C119.495 103.373 119.896 104.176 119.896 105.011C119.896 105.846 119.495 106.649 118.778 107.248C118.061 107.847 117.085 108.195 116.057 108.218H52.0001C50.953 108.218 49.9488 107.88 49.2084 107.279C48.468 106.677 48.052 105.862 48.052 105.011Z" stroke="url(#paint78_radial_400_4157)"/>
<path d="M32.0999 181.986C32.1003 181.135 32.5163 180.32 33.2567 179.718C33.997 179.117 35.001 178.779 36.048 178.778H119.349C120.377 178.802 121.353 179.15 122.07 179.749C122.787 180.348 123.188 181.15 123.188 181.986C123.188 182.821 122.787 183.623 122.07 184.222C121.353 184.821 120.377 185.169 119.349 185.193H36.048C35.0009 185.193 33.9966 184.855 33.2562 184.254C32.5158 183.652 32.0999 182.836 32.0999 181.986Z" stroke="url(#paint79_radial_400_4157)"/>
<path d="M12.1331 117.843C12.1335 116.993 12.5496 116.177 13.2899 115.576C14.0302 114.974 15.0342 114.636 16.0812 114.636H101.948C102.976 114.659 103.952 115.007 104.669 115.606C105.386 116.205 105.787 117.008 105.787 117.843C105.787 118.678 105.386 119.481 104.669 120.08C103.952 120.679 102.976 121.027 101.948 121.05H16.0812C15.0341 121.05 14.0298 120.712 13.2894 120.111C12.549 119.509 12.1331 118.694 12.1331 117.843Z" stroke="url(#paint80_radial_400_4157)"/>
<path d="M12.1331 169.161C12.1335 168.311 12.5496 167.495 13.2899 166.894C14.0302 166.292 15.0342 165.954 16.0812 165.954H101.948C102.976 165.978 103.952 166.326 104.669 166.925C105.386 167.524 105.787 168.326 105.787 169.161C105.787 169.997 105.386 170.799 104.669 171.398C103.952 171.997 102.976 172.345 101.948 172.369H16.0812C15.0341 172.369 14.0298 172.031 13.2894 171.429C12.549 170.828 12.1331 170.012 12.1331 169.161Z" stroke="url(#paint81_radial_400_4157)"/>
<path d="M7 130.667C7.00041 129.817 7.4165 129.001 8.15682 128.4C8.89715 127.798 9.90113 127.46 10.9481 127.46H96.8149C97.8428 127.483 98.8189 127.832 99.5358 128.431C100.253 129.029 100.654 129.832 100.654 130.667C100.654 131.503 100.253 132.305 99.5358 132.904C98.8189 133.503 97.8428 133.851 96.8149 133.875H10.9481C9.90101 133.875 8.89679 133.537 8.15637 132.935C7.41595 132.334 7 131.518 7 130.667Z" stroke="url(#paint82_radial_400_4157)"/>
<path d="M7 143.5C7.00041 142.65 7.4165 141.834 8.15682 141.233C8.89715 140.631 9.90113 140.293 10.9481 140.293H96.8149C97.8428 140.316 98.8189 140.665 99.5358 141.264C100.253 141.862 100.654 142.665 100.654 143.5C100.654 144.336 100.253 145.138 99.5358 145.737C98.8189 146.336 97.8428 146.684 96.8149 146.708H10.9481C9.90101 146.708 8.89679 146.37 8.15637 145.768C7.41595 145.167 7 144.351 7 143.5Z" stroke="url(#paint83_radial_400_4157)"/>
<path d="M7 156.329C7.00041 155.479 7.4165 154.663 8.15682 154.062C8.89715 153.46 9.90113 153.122 10.9481 153.122H96.8149C97.8428 153.146 98.8189 153.494 99.5358 154.093C100.253 154.692 100.654 155.494 100.654 156.329C100.654 157.165 100.253 157.967 99.5358 158.566C98.8189 159.165 97.8428 159.513 96.8149 159.537H10.9481C9.90101 159.537 8.89679 159.199 8.15637 158.597C7.41595 157.996 7 157.18 7 156.329Z" stroke="url(#paint84_radial_400_4157)"/>
<path d="M246.909 105.011C246.909 104.16 246.493 103.345 245.753 102.743C245.012 102.142 244.008 101.804 242.961 101.804H178.904C177.876 101.827 176.9 102.175 176.183 102.774C175.467 103.373 175.066 104.176 175.066 105.011C175.066 105.846 175.467 106.649 176.183 107.248C176.9 107.847 177.876 108.195 178.904 108.218H242.961C244.008 108.218 245.013 107.88 245.753 107.279C246.493 106.677 246.909 105.862 246.909 105.011Z" stroke="url(#paint85_radial_400_4157)"/>
<path d="M262.861 181.986C262.861 181.135 262.445 180.32 261.705 179.718C260.964 179.117 259.96 178.779 258.913 178.778H175.612C174.584 178.802 173.608 179.15 172.891 179.749C172.175 180.348 171.774 181.15 171.774 181.986C171.774 182.821 172.175 183.623 172.891 184.222C173.608 184.821 174.584 185.169 175.612 185.193H258.913C259.96 185.193 260.965 184.855 261.705 184.254C262.445 183.652 262.861 182.836 262.861 181.986Z" stroke="url(#paint86_radial_400_4157)"/>
<path d="M282.828 117.843C282.828 116.993 282.412 116.177 281.672 115.576C280.931 114.974 279.927 114.636 278.88 114.636H193.013C191.986 114.659 191.009 115.007 190.293 115.606C189.576 116.205 189.175 117.008 189.175 117.843C189.175 118.678 189.576 119.481 190.293 120.08C191.009 120.679 191.986 121.027 193.013 121.05H278.88C279.927 121.05 280.932 120.712 281.672 120.111C282.412 119.509 282.828 118.694 282.828 117.843Z" stroke="url(#paint87_radial_400_4157)"/>
<path d="M282.828 169.161C282.828 168.311 282.412 167.495 281.672 166.894C280.931 166.292 279.927 165.954 278.88 165.954H193.013C191.986 165.978 191.009 166.326 190.293 166.925C189.576 167.524 189.175 168.326 189.175 169.161C189.175 169.997 189.576 170.799 190.293 171.398C191.009 171.997 191.986 172.345 193.013 172.369H278.88C279.927 172.369 280.932 172.031 281.672 171.429C282.412 170.828 282.828 170.012 282.828 169.161Z" stroke="url(#paint88_radial_400_4157)"/>
<path d="M287.961 130.667C287.961 129.817 287.545 129.001 286.804 128.4C286.064 127.798 285.06 127.46 284.013 127.46H198.146C197.118 127.483 196.142 127.832 195.425 128.431C194.709 129.029 194.308 129.832 194.308 130.667C194.308 131.503 194.709 132.305 195.425 132.904C196.142 133.503 197.118 133.851 198.146 133.875H284.013C285.06 133.875 286.064 133.537 286.805 132.935C287.545 132.334 287.961 131.518 287.961 130.667Z" stroke="url(#paint89_radial_400_4157)"/>
<path d="M287.961 143.5C287.961 142.65 287.545 141.834 286.804 141.233C286.064 140.631 285.06 140.293 284.013 140.293H198.146C197.118 140.316 196.142 140.665 195.425 141.264C194.709 141.862 194.308 142.665 194.308 143.5C194.308 144.336 194.709 145.138 195.425 145.737C196.142 146.336 197.118 146.684 198.146 146.708H284.013C285.06 146.708 286.064 146.37 286.805 145.768C287.545 145.167 287.961 144.351 287.961 143.5Z" stroke="url(#paint90_radial_400_4157)"/>
<path d="M287.961 156.329C287.961 155.479 287.545 154.663 286.804 154.062C286.064 153.46 285.06 153.122 284.013 153.122H198.146C197.118 153.146 196.142 153.494 195.425 154.093C194.709 154.692 194.308 155.494 194.308 156.329C194.308 157.165 194.709 157.967 195.425 158.566C196.142 159.165 197.118 159.513 198.146 159.537H284.013C285.06 159.537 286.064 159.199 286.805 158.597C287.545 157.996 287.961 157.18 287.961 156.329Z" stroke="url(#paint91_radial_400_4157)"/>
<path d="M203.287 15.2073C203.287 14.3571 202.92 13.5418 202.267 12.9407C201.614 12.3395 200.729 12.0016 199.806 12.0013H187.623C187.158 11.9892 186.695 12.0632 186.261 12.2189C185.827 12.3746 185.432 12.6089 185.098 12.9078C184.764 13.2067 184.499 13.5642 184.318 13.9592C184.137 14.3541 184.043 14.7785 184.043 15.2073C184.043 15.6361 184.137 16.0605 184.318 16.4555C184.499 16.8505 184.764 17.208 185.098 17.5069C185.432 17.8058 185.827 18.04 186.261 18.1957C186.695 18.3514 187.158 18.4254 187.623 18.4134H199.806C200.729 18.4134 201.615 18.0756 202.268 17.4743C202.92 16.8731 203.287 16.0576 203.287 15.2073Z" stroke="url(#paint92_radial_400_4157)"/>
<path d="M225.096 28.0364C225.096 27.1859 224.68 26.3703 223.939 25.7689C223.199 25.1675 222.195 24.8294 221.148 24.8291H173.769C172.741 24.8526 171.765 25.2008 171.048 25.7997C170.331 26.3986 169.93 27.201 169.93 28.0364C169.93 28.8718 170.331 29.6742 171.048 30.2731C171.765 30.8721 172.741 31.2203 173.769 31.2437H221.148C222.195 31.2437 223.199 30.9058 223.94 30.3043C224.68 29.7028 225.096 28.887 225.096 28.0364Z" stroke="url(#paint93_radial_400_4157)"/>
<path d="M237.929 40.8636C237.928 40.013 237.512 39.1974 236.772 38.596C236.032 37.9946 235.028 37.6566 233.981 37.6562H164.792C163.764 37.6797 162.788 38.0279 162.071 38.6268C161.354 39.2258 160.953 40.0282 160.953 40.8636C160.953 41.6989 161.354 42.5014 162.071 43.1003C162.788 43.6992 163.764 44.0474 164.792 44.0709H233.981C235.028 44.0709 236.032 43.733 236.772 43.1315C237.513 42.53 237.929 41.7142 237.929 40.8636Z" stroke="url(#paint94_radial_400_4157)"/>
<path d="M51.9037 53.6936C51.9041 52.8431 52.3202 52.0275 53.0605 51.4261C53.8009 50.8247 54.8049 50.4867 55.8518 50.4863H237.938C238.966 50.5098 239.942 50.858 240.659 51.4569C241.376 52.0558 241.777 52.8583 241.777 53.6936C241.777 54.529 241.376 55.3314 240.659 55.9304C239.942 56.5293 238.966 56.8775 237.938 56.901H55.8518C54.8047 56.901 53.8005 56.563 53.0601 55.9616C52.3197 55.3601 51.9037 54.5443 51.9037 53.6936Z" stroke="url(#paint95_radial_400_4157)"/>
<path d="M51.9037 53.6936C51.9041 52.8431 52.3202 52.0275 53.0605 51.4261C53.8009 50.8247 54.8049 50.4867 55.8518 50.4863H237.938C238.966 50.5098 239.942 50.858 240.659 51.4569C241.376 52.0558 241.777 52.8583 241.777 53.6936C241.777 54.529 241.376 55.3314 240.659 55.9304C239.942 56.5293 238.966 56.8775 237.938 56.901H55.8518C54.8047 56.901 53.8005 56.563 53.0601 55.9616C52.3197 55.3601 51.9037 54.5443 51.9037 53.6936Z" stroke="url(#paint96_radial_400_4157)"/>
<path d="M57.0366 66.5247C57.037 65.6742 57.453 64.8586 58.1934 64.2572C58.9337 63.6557 59.9377 63.3177 60.9847 63.3174H231.525C232.552 63.3408 233.529 63.689 234.245 64.288C234.962 64.8869 235.363 65.6893 235.363 66.5247C235.363 67.3601 234.962 68.1625 234.245 68.7614C233.529 69.3603 232.552 69.7086 231.525 69.732H60.9847C59.9376 69.732 58.9333 69.3941 58.1929 68.7926C57.4525 68.1911 57.0366 67.3753 57.0366 66.5247Z" stroke="url(#paint97_radial_400_4157)"/>
<path d="M62.1694 79.3489C62.1698 78.4984 62.5859 77.6828 63.3263 77.0814C64.0666 76.48 65.0706 76.1419 66.1175 76.1416H227.677C228.705 76.1651 229.681 76.5133 230.398 77.1122C231.115 77.7111 231.516 78.5135 231.516 79.3489C231.516 80.1843 231.115 80.9867 230.398 81.5856C229.681 82.1846 228.705 82.5328 227.677 82.5562H66.1175C65.0704 82.5562 64.0662 82.2183 63.3258 81.6168C62.5854 81.0153 62.1694 80.1995 62.1694 79.3489Z" stroke="url(#paint98_radial_400_4157)"/>
<path d="M90.3892 271.793C90.3896 272.643 90.7564 273.458 91.4091 274.059C92.0619 274.661 92.947 274.998 93.8701 274.999H106.053C106.518 275.011 106.982 274.937 107.415 274.781C107.849 274.625 108.245 274.391 108.578 274.092C108.912 273.793 109.177 273.436 109.359 273.041C109.54 272.646 109.633 272.221 109.633 271.793C109.633 271.364 109.54 270.939 109.359 270.545C109.177 270.15 108.912 269.792 108.578 269.493C108.245 269.194 107.849 268.96 107.415 268.804C106.982 268.649 106.518 268.575 106.053 268.587H93.8701C92.9469 268.587 92.0615 268.924 91.4087 269.526C90.756 270.127 90.3892 270.942 90.3892 271.793Z" stroke="url(#paint99_radial_400_4157)"/>
<path d="M68.5798 258.964C68.5802 259.814 68.9963 260.63 69.7366 261.231C70.477 261.833 71.481 262.171 72.5279 262.171H119.907C120.935 262.147 121.911 261.799 122.628 261.2C123.345 260.601 123.746 259.799 123.746 258.964C123.746 258.128 123.345 257.326 122.628 256.727C121.911 256.128 120.935 255.78 119.907 255.756H72.5279C71.4808 255.756 70.4766 256.094 69.7362 256.696C68.9958 257.297 68.5798 258.113 68.5798 258.964Z" stroke="url(#paint100_radial_400_4157)"/>
<path d="M55.7516 246.136C55.7521 246.987 56.1681 247.803 56.9085 248.404C57.6488 249.005 58.6528 249.343 59.6998 249.344H128.888C129.916 249.32 130.893 248.972 131.609 248.373C132.326 247.774 132.727 246.972 132.727 246.136C132.727 245.301 132.326 244.499 131.609 243.9C130.893 243.301 129.916 242.953 128.888 242.929H59.6998C58.6527 242.929 57.6484 243.267 56.908 243.869C56.1676 244.47 55.7516 245.286 55.7516 246.136Z" stroke="url(#paint101_radial_400_4157)"/>
<path d="M203.287 271.793C203.287 272.643 202.92 273.458 202.267 274.059C201.614 274.661 200.729 274.998 199.806 274.999H187.623C187.158 275.011 186.695 274.937 186.261 274.781C185.827 274.625 185.432 274.391 185.098 274.092C184.764 273.793 184.499 273.436 184.318 273.041C184.137 272.646 184.043 272.221 184.043 271.793C184.043 271.364 184.137 270.939 184.318 270.545C184.499 270.15 184.764 269.792 185.098 269.493C185.432 269.194 185.827 268.96 186.261 268.804C186.695 268.649 187.158 268.575 187.623 268.587H199.806C200.729 268.587 201.615 268.924 202.268 269.526C202.92 270.127 203.287 270.942 203.287 271.793Z" stroke="url(#paint102_radial_400_4157)"/>
<path d="M225.096 258.964C225.096 259.814 224.68 260.63 223.939 261.231C223.199 261.833 222.195 262.171 221.148 262.171H173.769C172.741 262.147 171.765 261.799 171.048 261.2C170.331 260.601 169.93 259.799 169.93 258.964C169.93 258.128 170.331 257.326 171.048 256.727C171.765 256.128 172.741 255.78 173.769 255.756H221.148C222.195 255.756 223.199 256.094 223.94 256.696C224.68 257.297 225.096 258.113 225.096 258.964Z" stroke="url(#paint103_radial_400_4157)"/>
<path d="M237.929 246.136C237.928 246.987 237.512 247.803 236.772 248.404C236.032 249.005 235.028 249.343 233.981 249.344H164.792C163.764 249.32 162.788 248.972 162.071 248.373C161.354 247.774 160.953 246.972 160.953 246.136C160.953 245.301 161.354 244.499 162.071 243.9C162.788 243.301 163.764 242.953 164.792 242.929H233.981C235.028 242.929 236.032 243.267 236.772 243.869C237.513 244.47 237.929 245.286 237.929 246.136Z" stroke="url(#paint104_radial_400_4157)"/>
<path d="M51.9037 233.306C51.9041 234.157 52.3202 234.972 53.0605 235.574C53.8009 236.175 54.8049 236.513 55.8518 236.514H237.938C238.966 236.49 239.942 236.142 240.659 235.543C241.376 234.944 241.777 234.142 241.777 233.306C241.777 232.471 241.376 231.669 240.659 231.07C239.942 230.471 238.966 230.122 237.938 230.099H55.8518C54.8047 230.099 53.8005 230.437 53.0601 231.038C52.3197 231.64 51.9037 232.456 51.9037 233.306Z" stroke="url(#paint105_radial_400_4157)"/>
<path d="M57.0366 220.475C57.037 221.326 57.453 222.141 58.1934 222.743C58.9337 223.344 59.9377 223.682 60.9847 223.683H231.525C232.552 223.659 233.529 223.311 234.245 222.712C234.962 222.113 235.363 221.311 235.363 220.475C235.363 219.64 234.962 218.838 234.245 218.239C233.529 217.64 232.552 217.291 231.525 217.268H60.9847C59.9376 217.268 58.9333 217.606 58.1929 218.207C57.4525 218.809 57.0366 219.625 57.0366 220.475Z" stroke="url(#paint106_radial_400_4157)"/>
<path d="M62.1694 207.651C62.1698 208.502 62.5859 209.317 63.3263 209.919C64.0666 210.52 65.0706 210.858 66.1175 210.858H227.677C228.705 210.835 229.681 210.487 230.398 209.888C231.115 209.289 231.516 208.486 231.516 207.651C231.516 206.816 231.115 206.013 230.398 205.414C229.681 204.815 228.705 204.467 227.677 204.444H66.1175C65.0704 204.444 64.0662 204.782 63.3258 205.383C62.5854 205.985 62.1694 206.8 62.1694 207.651Z" stroke="url(#paint107_radial_400_4157)"/>
<path d="M55.7517 194.818C55.7521 195.669 56.1682 196.484 56.9085 197.086C57.6489 197.687 58.6528 198.025 59.6998 198.025H139.152C140.18 198.002 141.156 197.654 141.873 197.055C142.59 196.456 142.991 195.653 142.991 194.818C142.991 193.983 142.59 193.18 141.873 192.581C141.156 191.982 140.18 191.634 139.152 191.611H59.6998C58.6527 191.611 57.6485 191.949 56.9081 192.55C56.1677 193.152 55.7517 193.967 55.7517 194.818Z" stroke="url(#paint108_radial_400_4157)"/>
<path d="M148.781 194.818C148.781 195.669 149.198 196.484 149.938 197.086C150.678 197.687 151.682 198.025 152.729 198.025H232.181C233.209 198.002 234.185 197.654 234.902 197.055C235.619 196.456 236.02 195.653 236.02 194.818C236.02 193.983 235.619 193.18 234.902 192.581C234.185 191.982 233.209 191.634 232.181 191.611H152.729C151.682 191.611 150.678 191.949 149.937 192.55C149.197 193.152 148.781 193.967 148.781 194.818Z" stroke="url(#paint109_radial_400_4157)"/>
<path d="M142.991 92.1809C142.99 91.3304 142.574 90.5148 141.834 89.9134C141.094 89.312 140.09 88.974 139.043 88.9736L59.5905 88.9736C58.5626 88.9971 57.5864 89.3453 56.8696 89.9442C56.1527 90.5431 55.7517 91.3456 55.7517 92.1809C55.7517 93.0163 56.1527 93.8187 56.8696 94.4177C57.5864 95.0166 58.5626 95.3648 59.5905 95.3883L139.043 95.3883C140.09 95.3883 141.094 95.0503 141.834 94.4489C142.575 93.8474 142.991 93.0316 142.991 92.1809Z" stroke="url(#paint110_radial_400_4157)"/>
<path d="M234.079 92.1809C234.078 91.3304 233.662 90.5148 232.922 89.9134C232.182 89.312 231.178 88.974 230.131 88.9736L150.679 88.9736C149.651 88.9971 148.675 89.3453 147.958 89.9442C147.241 90.5431 146.84 91.3456 146.84 92.1809C146.84 93.0163 147.241 93.8187 147.958 94.4177C148.675 95.0166 149.651 95.3648 150.679 95.3883L230.131 95.3883C231.178 95.3883 232.182 95.0503 232.922 94.4489C233.663 93.8474 234.079 93.0316 234.079 92.1809Z" stroke="url(#paint111_radial_400_4157)"/>
</g>
<defs>
<linearGradient id="paint0_linear_400_4157" x1="151" y1="85" x2="151" y2="259.5" gradientUnits="userSpaceOnUse">
<stop stop-color="#010101"/>
<stop offset="1" stop-color="#D9D9D9" stop-opacity="0"/>
</linearGradient>
<linearGradient id="paint1_linear_400_4157" x1="90.3892" y1="12" x2="110.149" y2="14.8951" gradientUnits="userSpaceOnUse">
<stop stop-color="white"/>
<stop offset="1" stop-color="white" stop-opacity="0.88"/>
</linearGradient>
<linearGradient id="paint2_linear_400_4157" x1="68.5798" y1="24.8291" x2="117.763" y2="45.4868" gradientUnits="userSpaceOnUse">
<stop stop-color="white"/>
<stop offset="1" stop-color="white" stop-opacity="0.88"/>
</linearGradient>
<linearGradient id="paint3_linear_400_4157" x1="55.7516" y1="37.6562" x2="115.846" y2="72.8753" gradientUnits="userSpaceOnUse">
<stop stop-color="white"/>
<stop offset="1" stop-color="white" stop-opacity="0.88"/>
</linearGradient>
<linearGradient id="paint4_linear_400_4157" x1="48.052" y1="101.804" x2="106.051" y2="133.529" gradientUnits="userSpaceOnUse">
<stop stop-color="white"/>
<stop offset="1" stop-color="white" stop-opacity="0.88"/>
</linearGradient>
<linearGradient id="paint5_linear_400_4157" x1="32.0999" y1="178.778" x2="96.6099" y2="223.517" gradientUnits="userSpaceOnUse">
<stop stop-color="white"/>
<stop offset="1" stop-color="white" stop-opacity="0.88"/>
</linearGradient>
<linearGradient id="paint6_linear_400_4157" x1="12.1331" y1="114.636" x2="77.2521" y2="161.068" gradientUnits="userSpaceOnUse">
<stop stop-color="white"/>
<stop offset="1" stop-color="white" stop-opacity="0.88"/>
</linearGradient>
<linearGradient id="paint7_linear_400_4157" x1="12.1331" y1="165.954" x2="77.2521" y2="212.387" gradientUnits="userSpaceOnUse">
<stop stop-color="white"/>
<stop offset="1" stop-color="white" stop-opacity="0.88"/>
</linearGradient>
<linearGradient id="paint8_linear_400_4157" x1="7" y1="127.46" x2="72.1191" y2="173.893" gradientUnits="userSpaceOnUse">
<stop stop-color="white"/>
<stop offset="1" stop-color="white" stop-opacity="0.88"/>
</linearGradient>
<linearGradient id="paint9_linear_400_4157" x1="7" y1="140.293" x2="72.1191" y2="186.726" gradientUnits="userSpaceOnUse">
<stop stop-color="white"/>
<stop offset="1" stop-color="white" stop-opacity="0.88"/>
</linearGradient>
<linearGradient id="paint10_linear_400_4157" x1="7" y1="153.122" x2="72.1191" y2="199.555" gradientUnits="userSpaceOnUse">
<stop stop-color="white"/>
<stop offset="1" stop-color="white" stop-opacity="0.88"/>
</linearGradient>
<linearGradient id="paint11_linear_400_4157" x1="246.909" y1="101.804" x2="188.91" y2="133.529" gradientUnits="userSpaceOnUse">
<stop stop-color="white"/>
<stop offset="1" stop-color="white" stop-opacity="0.88"/>
</linearGradient>
<linearGradient id="paint12_linear_400_4157" x1="262.861" y1="178.778" x2="198.351" y2="223.517" gradientUnits="userSpaceOnUse">
<stop stop-color="white"/>
<stop offset="1" stop-color="white" stop-opacity="0.88"/>
</linearGradient>
<linearGradient id="paint13_linear_400_4157" x1="282.828" y1="114.636" x2="217.709" y2="161.068" gradientUnits="userSpaceOnUse">
<stop stop-color="white"/>
<stop offset="1" stop-color="white" stop-opacity="0.88"/>
</linearGradient>
<linearGradient id="paint14_linear_400_4157" x1="282.828" y1="165.954" x2="217.709" y2="212.387" gradientUnits="userSpaceOnUse">
<stop stop-color="white"/>
<stop offset="1" stop-color="white" stop-opacity="0.88"/>
</linearGradient>
<linearGradient id="paint15_linear_400_4157" x1="287.961" y1="127.46" x2="222.842" y2="173.893" gradientUnits="userSpaceOnUse">
<stop stop-color="white"/>
<stop offset="1" stop-color="white" stop-opacity="0.88"/>
</linearGradient>
<linearGradient id="paint16_linear_400_4157" x1="287.961" y1="140.293" x2="222.842" y2="186.726" gradientUnits="userSpaceOnUse">
<stop stop-color="white"/>
<stop offset="1" stop-color="white" stop-opacity="0.88"/>
</linearGradient>
<linearGradient id="paint17_linear_400_4157" x1="287.961" y1="153.122" x2="222.842" y2="199.555" gradientUnits="userSpaceOnUse">
<stop stop-color="white"/>
<stop offset="1" stop-color="white" stop-opacity="0.88"/>
</linearGradient>
<linearGradient id="paint18_linear_400_4157" x1="203.287" y1="12" x2="183.528" y2="14.8951" gradientUnits="userSpaceOnUse">
<stop stop-color="white"/>
<stop offset="1" stop-color="white" stop-opacity="0.88"/>
</linearGradient>
<linearGradient id="paint19_linear_400_4157" x1="225.096" y1="24.8291" x2="175.913" y2="45.4868" gradientUnits="userSpaceOnUse">
<stop stop-color="white"/>
<stop offset="1" stop-color="white" stop-opacity="0.88"/>
</linearGradient>
<linearGradient id="paint20_linear_400_4157" x1="237.929" y1="37.6562" x2="177.834" y2="72.8753" gradientUnits="userSpaceOnUse">
<stop stop-color="white"/>
<stop offset="1" stop-color="white" stop-opacity="0.88"/>
</linearGradient>
<linearGradient id="paint21_linear_400_4157" x1="51.9037" y1="50.4863" x2="116.356" y2="143.66" gradientUnits="userSpaceOnUse">
<stop stop-color="white"/>
<stop offset="1" stop-color="white" stop-opacity="0.88"/>
</linearGradient>
<linearGradient id="paint22_linear_400_4157" x1="51.9037" y1="50.4863" x2="116.356" y2="143.66" gradientUnits="userSpaceOnUse">
<stop stop-color="white"/>
<stop offset="1" stop-color="white" stop-opacity="0.88"/>
</linearGradient>
<linearGradient id="paint23_linear_400_4157" x1="57.0366" y1="63.3174" x2="122.816" y2="152.627" gradientUnits="userSpaceOnUse">
<stop stop-color="white"/>
<stop offset="1" stop-color="white" stop-opacity="0.88"/>
</linearGradient>
<linearGradient id="paint24_linear_400_4157" x1="62.1694" y1="76.1416" x2="128.883" y2="162.158" gradientUnits="userSpaceOnUse">
<stop stop-color="white"/>
<stop offset="1" stop-color="white" stop-opacity="0.88"/>
</linearGradient>
<linearGradient id="paint25_linear_400_4157" x1="90.3892" y1="275" x2="110.149" y2="272.105" gradientUnits="userSpaceOnUse">
<stop stop-color="white"/>
<stop offset="1" stop-color="white" stop-opacity="0.88"/>
</linearGradient>
<linearGradient id="paint26_linear_400_4157" x1="68.5798" y1="262.171" x2="117.763" y2="241.513" gradientUnits="userSpaceOnUse">
<stop stop-color="white"/>
<stop offset="1" stop-color="white" stop-opacity="0.88"/>
</linearGradient>
<linearGradient id="paint27_linear_400_4157" x1="55.7516" y1="249.344" x2="115.846" y2="214.125" gradientUnits="userSpaceOnUse">
<stop stop-color="white"/>
<stop offset="1" stop-color="white" stop-opacity="0.88"/>
</linearGradient>
<linearGradient id="paint28_linear_400_4157" x1="203.287" y1="275" x2="183.528" y2="272.105" gradientUnits="userSpaceOnUse">
<stop stop-color="white"/>
<stop offset="1" stop-color="white" stop-opacity="0.88"/>
</linearGradient>
<linearGradient id="paint29_linear_400_4157" x1="225.096" y1="262.171" x2="175.913" y2="241.513" gradientUnits="userSpaceOnUse">
<stop stop-color="white"/>
<stop offset="1" stop-color="white" stop-opacity="0.88"/>
</linearGradient>
<linearGradient id="paint30_linear_400_4157" x1="237.929" y1="249.344" x2="177.834" y2="214.125" gradientUnits="userSpaceOnUse">
<stop stop-color="white"/>
<stop offset="1" stop-color="white" stop-opacity="0.88"/>
</linearGradient>
<linearGradient id="paint31_linear_400_4157" x1="51.9037" y1="236.514" x2="116.356" y2="143.34" gradientUnits="userSpaceOnUse">
<stop stop-color="white"/>
<stop offset="1" stop-color="white" stop-opacity="0.88"/>
</linearGradient>
<linearGradient id="paint32_linear_400_4157" x1="57.0366" y1="223.683" x2="122.816" y2="134.373" gradientUnits="userSpaceOnUse">
<stop stop-color="white"/>
<stop offset="1" stop-color="white" stop-opacity="0.88"/>
</linearGradient>
<linearGradient id="paint33_linear_400_4157" x1="62.1694" y1="210.858" x2="128.883" y2="124.842" gradientUnits="userSpaceOnUse">
<stop stop-color="white"/>
<stop offset="1" stop-color="white" stop-opacity="0.88"/>
</linearGradient>
<linearGradient id="paint34_linear_400_4157" x1="55.7517" y1="198.025" x2="119.242" y2="155.855" gradientUnits="userSpaceOnUse">
<stop stop-color="white"/>
<stop offset="1" stop-color="white" stop-opacity="0.88"/>
</linearGradient>
<linearGradient id="paint35_linear_400_4157" x1="148.781" y1="198.025" x2="212.271" y2="155.855" gradientUnits="userSpaceOnUse">
<stop stop-color="white"/>
<stop offset="1" stop-color="white" stop-opacity="0.88"/>
</linearGradient>
<linearGradient id="paint36_linear_400_4157" x1="55.7517" y1="95.3887" x2="119.242" y2="53.2184" gradientUnits="userSpaceOnUse">
<stop stop-color="white"/>
<stop offset="1" stop-color="white" stop-opacity="0.88"/>
</linearGradient>
<linearGradient id="paint37_linear_400_4157" x1="146.84" y1="95.3887" x2="210.33" y2="53.2184" gradientUnits="userSpaceOnUse">
<stop stop-color="white"/>
<stop offset="1" stop-color="white" stop-opacity="0.88"/>
</linearGradient>
<linearGradient id="paint38_linear_400_4157" x1="90.3892" y1="12" x2="110.149" y2="14.8951" gradientUnits="userSpaceOnUse">
<stop stop-color="white"/>
<stop offset="1" stop-color="white" stop-opacity="0.88"/>
</linearGradient>
<linearGradient id="paint39_linear_400_4157" x1="68.5798" y1="24.8291" x2="117.763" y2="45.4868" gradientUnits="userSpaceOnUse">
<stop stop-color="white"/>
<stop offset="1" stop-color="white" stop-opacity="0.88"/>
</linearGradient>
<linearGradient id="paint40_linear_400_4157" x1="55.7516" y1="37.6562" x2="115.846" y2="72.8753" gradientUnits="userSpaceOnUse">
<stop stop-color="white"/>
<stop offset="1" stop-color="white" stop-opacity="0.88"/>
</linearGradient>
<linearGradient id="paint41_linear_400_4157" x1="48.052" y1="101.804" x2="106.051" y2="133.529" gradientUnits="userSpaceOnUse">
<stop stop-color="white"/>
<stop offset="1" stop-color="white" stop-opacity="0.88"/>
</linearGradient>
<linearGradient id="paint42_linear_400_4157" x1="32.0999" y1="178.778" x2="96.6099" y2="223.517" gradientUnits="userSpaceOnUse">
<stop stop-color="white"/>
<stop offset="1" stop-color="white" stop-opacity="0.88"/>
</linearGradient>
<linearGradient id="paint43_linear_400_4157" x1="12.1331" y1="114.636" x2="77.2521" y2="161.068" gradientUnits="userSpaceOnUse">
<stop stop-color="white"/>
<stop offset="1" stop-color="white" stop-opacity="0.88"/>
</linearGradient>
<linearGradient id="paint44_linear_400_4157" x1="12.1331" y1="165.954" x2="77.2521" y2="212.387" gradientUnits="userSpaceOnUse">
<stop stop-color="white"/>
<stop offset="1" stop-color="white" stop-opacity="0.88"/>
</linearGradient>
<linearGradient id="paint45_linear_400_4157" x1="7" y1="127.46" x2="72.1191" y2="173.893" gradientUnits="userSpaceOnUse">
<stop stop-color="white"/>
<stop offset="1" stop-color="white" stop-opacity="0.88"/>
</linearGradient>
<linearGradient id="paint46_linear_400_4157" x1="7" y1="140.293" x2="72.1191" y2="186.726" gradientUnits="userSpaceOnUse">
<stop stop-color="white"/>
<stop offset="1" stop-color="white" stop-opacity="0.88"/>
</linearGradient>
<linearGradient id="paint47_linear_400_4157" x1="7" y1="153.122" x2="72.1191" y2="199.555" gradientUnits="userSpaceOnUse">
<stop stop-color="white"/>
<stop offset="1" stop-color="white" stop-opacity="0.88"/>
</linearGradient>
<linearGradient id="paint48_linear_400_4157" x1="246.909" y1="101.804" x2="188.91" y2="133.529" gradientUnits="userSpaceOnUse">
<stop stop-color="white"/>
<stop offset="1" stop-color="white" stop-opacity="0.88"/>
</linearGradient>
<linearGradient id="paint49_linear_400_4157" x1="262.861" y1="178.778" x2="198.351" y2="223.517" gradientUnits="userSpaceOnUse">
<stop stop-color="white"/>
<stop offset="1" stop-color="white" stop-opacity="0.88"/>
</linearGradient>
<linearGradient id="paint50_linear_400_4157" x1="282.828" y1="114.636" x2="217.709" y2="161.068" gradientUnits="userSpaceOnUse">
<stop stop-color="white"/>
<stop offset="1" stop-color="white" stop-opacity="0.88"/>
</linearGradient>
<linearGradient id="paint51_linear_400_4157" x1="282.828" y1="165.954" x2="217.709" y2="212.387" gradientUnits="userSpaceOnUse">
<stop stop-color="white"/>
<stop offset="1" stop-color="white" stop-opacity="0.88"/>
</linearGradient>
<linearGradient id="paint52_linear_400_4157" x1="287.961" y1="127.46" x2="222.842" y2="173.893" gradientUnits="userSpaceOnUse">
<stop stop-color="white"/>
<stop offset="1" stop-color="white" stop-opacity="0.88"/>
</linearGradient>
<linearGradient id="paint53_linear_400_4157" x1="287.961" y1="140.293" x2="222.842" y2="186.726" gradientUnits="userSpaceOnUse">
<stop stop-color="white"/>
<stop offset="1" stop-color="white" stop-opacity="0.88"/>
</linearGradient>
<linearGradient id="paint54_linear_400_4157" x1="287.961" y1="153.122" x2="222.842" y2="199.555" gradientUnits="userSpaceOnUse">
<stop stop-color="white"/>
<stop offset="1" stop-color="white" stop-opacity="0.88"/>
</linearGradient>
<linearGradient id="paint55_linear_400_4157" x1="203.287" y1="12" x2="183.528" y2="14.8951" gradientUnits="userSpaceOnUse">
<stop stop-color="white"/>
<stop offset="1" stop-color="white" stop-opacity="0.88"/>
</linearGradient>
<linearGradient id="paint56_linear_400_4157" x1="225.096" y1="24.8291" x2="175.913" y2="45.4868" gradientUnits="userSpaceOnUse">
<stop stop-color="white"/>
<stop offset="1" stop-color="white" stop-opacity="0.88"/>
</linearGradient>
<linearGradient id="paint57_linear_400_4157" x1="237.929" y1="37.6562" x2="177.834" y2="72.8753" gradientUnits="userSpaceOnUse">
<stop stop-color="white"/>
<stop offset="1" stop-color="white" stop-opacity="0.88"/>
</linearGradient>
<linearGradient id="paint58_linear_400_4157" x1="51.9037" y1="50.4863" x2="116.356" y2="143.66" gradientUnits="userSpaceOnUse">
<stop stop-color="white"/>
<stop offset="1" stop-color="white" stop-opacity="0.88"/>
</linearGradient>
<linearGradient id="paint59_linear_400_4157" x1="51.9037" y1="50.4863" x2="116.356" y2="143.66" gradientUnits="userSpaceOnUse">
<stop stop-color="white"/>
<stop offset="1" stop-color="white" stop-opacity="0.88"/>
</linearGradient>
<linearGradient id="paint60_linear_400_4157" x1="57.0366" y1="63.3174" x2="122.816" y2="152.627" gradientUnits="userSpaceOnUse">
<stop stop-color="white"/>
<stop offset="1" stop-color="white" stop-opacity="0.88"/>
</linearGradient>
<linearGradient id="paint61_linear_400_4157" x1="62.1694" y1="76.1416" x2="128.883" y2="162.158" gradientUnits="userSpaceOnUse">
<stop stop-color="white"/>
<stop offset="1" stop-color="white" stop-opacity="0.88"/>
</linearGradient>
<linearGradient id="paint62_linear_400_4157" x1="90.3892" y1="275" x2="110.149" y2="272.105" gradientUnits="userSpaceOnUse">
<stop stop-color="white"/>
<stop offset="1" stop-color="white" stop-opacity="0.88"/>
</linearGradient>
<linearGradient id="paint63_linear_400_4157" x1="68.5798" y1="262.171" x2="117.763" y2="241.513" gradientUnits="userSpaceOnUse">
<stop stop-color="white"/>
<stop offset="1" stop-color="white" stop-opacity="0.88"/>
</linearGradient>
<linearGradient id="paint64_linear_400_4157" x1="55.7516" y1="249.344" x2="115.846" y2="214.125" gradientUnits="userSpaceOnUse">
<stop stop-color="white"/>
<stop offset="1" stop-color="white" stop-opacity="0.88"/>
</linearGradient>
<linearGradient id="paint65_linear_400_4157" x1="203.287" y1="275" x2="183.528" y2="272.105" gradientUnits="userSpaceOnUse">
<stop stop-color="white"/>
<stop offset="1" stop-color="white" stop-opacity="0.88"/>
</linearGradient>
<linearGradient id="paint66_linear_400_4157" x1="225.096" y1="262.171" x2="175.913" y2="241.513" gradientUnits="userSpaceOnUse">
<stop stop-color="white"/>
<stop offset="1" stop-color="white" stop-opacity="0.88"/>
</linearGradient>
<linearGradient id="paint67_linear_400_4157" x1="237.929" y1="249.344" x2="177.834" y2="214.125" gradientUnits="userSpaceOnUse">
<stop stop-color="white"/>
<stop offset="1" stop-color="white" stop-opacity="0.88"/>
</linearGradient>
<linearGradient id="paint68_linear_400_4157" x1="51.9037" y1="236.514" x2="116.356" y2="143.34" gradientUnits="userSpaceOnUse">
<stop stop-color="white"/>
<stop offset="1" stop-color="white" stop-opacity="0.88"/>
</linearGradient>
<linearGradient id="paint69_linear_400_4157" x1="57.0366" y1="223.683" x2="122.816" y2="134.373" gradientUnits="userSpaceOnUse">
<stop stop-color="white"/>
<stop offset="1" stop-color="white" stop-opacity="0.88"/>
</linearGradient>
<linearGradient id="paint70_linear_400_4157" x1="62.1694" y1="210.858" x2="128.883" y2="124.842" gradientUnits="userSpaceOnUse">
<stop stop-color="white"/>
<stop offset="1" stop-color="white" stop-opacity="0.88"/>
</linearGradient>
<linearGradient id="paint71_linear_400_4157" x1="55.7517" y1="198.025" x2="119.242" y2="155.855" gradientUnits="userSpaceOnUse">
<stop stop-color="white"/>
<stop offset="1" stop-color="white" stop-opacity="0.88"/>
</linearGradient>
<linearGradient id="paint72_linear_400_4157" x1="148.781" y1="198.025" x2="212.271" y2="155.855" gradientUnits="userSpaceOnUse">
<stop stop-color="white"/>
<stop offset="1" stop-color="white" stop-opacity="0.88"/>
</linearGradient>
<linearGradient id="paint73_linear_400_4157" x1="55.7517" y1="95.3887" x2="119.242" y2="53.2184" gradientUnits="userSpaceOnUse">
<stop stop-color="white"/>
<stop offset="1" stop-color="white" stop-opacity="0.88"/>
</linearGradient>
<linearGradient id="paint74_linear_400_4157" x1="146.84" y1="95.3887" x2="210.33" y2="53.2184" gradientUnits="userSpaceOnUse">
<stop stop-color="white"/>
<stop offset="1" stop-color="white" stop-opacity="0.88"/>
</linearGradient>
<radialGradient id="paint75_radial_400_4157" cx="0" cy="0" r="1" gradientUnits="userSpaceOnUse" gradientTransform="translate(102.691 10.7746) rotate(90) scale(6.15321 18.4596)">
<stop stop-color="white"/>
<stop offset="1" stop-color="white" stop-opacity="0"/>
</radialGradient>
<radialGradient id="paint76_radial_400_4157" cx="0" cy="0" r="1" gradientUnits="userSpaceOnUse" gradientTransform="translate(103.845 23.6037) rotate(90) scale(6.15321 52.9176)">
<stop stop-color="white"/>
<stop offset="1" stop-color="white" stop-opacity="0"/>
</radialGradient>
<radialGradient id="paint77_radial_400_4157" cx="0" cy="0" r="1" gradientUnits="userSpaceOnUse" gradientTransform="translate(104.959 36.4309) rotate(90) scale(6.15321 73.8385)">
<stop stop-color="white"/>
<stop offset="1" stop-color="white" stop-opacity="0"/>
</radialGradient>
<radialGradient id="paint78_radial_400_4157" cx="0" cy="0" r="1" gradientUnits="userSpaceOnUse" gradientTransform="translate(93.9791 100.578) rotate(90) scale(6.15321 68.9159)">
<stop stop-color="white"/>
<stop offset="1" stop-color="white" stop-opacity="0"/>
</radialGradient>
<radialGradient id="paint79_radial_400_4157" cx="0" cy="0" r="1" gradientUnits="userSpaceOnUse" gradientTransform="translate(90.3289 177.553) rotate(90) scale(6.15321 87.3755)">
<stop stop-color="white"/>
<stop offset="1" stop-color="white" stop-opacity="0"/>
</radialGradient>
<radialGradient id="paint80_radial_400_4157" cx="0" cy="0" r="1" gradientUnits="userSpaceOnUse" gradientTransform="translate(72.0023 113.41) rotate(90) scale(6.15321 89.8368)">
<stop stop-color="white"/>
<stop offset="1" stop-color="white" stop-opacity="0"/>
</radialGradient>
<radialGradient id="paint81_radial_400_4157" cx="0" cy="0" r="1" gradientUnits="userSpaceOnUse" gradientTransform="translate(72.0023 164.729) rotate(90) scale(6.15321 89.8368)">
<stop stop-color="white"/>
<stop offset="1" stop-color="white" stop-opacity="0"/>
</radialGradient>
<radialGradient id="paint82_radial_400_4157" cx="0" cy="0" r="1" gradientUnits="userSpaceOnUse" gradientTransform="translate(66.8693 126.235) rotate(90) scale(6.15321 89.8368)">
<stop stop-color="white"/>
<stop offset="1" stop-color="white" stop-opacity="0"/>
</radialGradient>
<radialGradient id="paint83_radial_400_4157" cx="0" cy="0" r="1" gradientUnits="userSpaceOnUse" gradientTransform="translate(66.8693 139.068) rotate(90) scale(6.15321 89.8368)">
<stop stop-color="white"/>
<stop offset="1" stop-color="white" stop-opacity="0"/>
</radialGradient>
<radialGradient id="paint84_radial_400_4157" cx="0" cy="0" r="1" gradientUnits="userSpaceOnUse" gradientTransform="translate(66.8693 151.897) rotate(90) scale(6.15321 89.8368)">
<stop stop-color="white"/>
<stop offset="1" stop-color="white" stop-opacity="0"/>
</radialGradient>
<radialGradient id="paint85_radial_400_4157" cx="0" cy="0" r="1" gradientUnits="userSpaceOnUse" gradientTransform="translate(200.982 100.578) rotate(90) scale(6.15321 68.9159)">
<stop stop-color="white"/>
<stop offset="1" stop-color="white" stop-opacity="0"/>
</radialGradient>
<radialGradient id="paint86_radial_400_4157" cx="0" cy="0" r="1" gradientUnits="userSpaceOnUse" gradientTransform="translate(204.632 177.553) rotate(90) scale(6.15321 87.3755)">
<stop stop-color="white"/>
<stop offset="1" stop-color="white" stop-opacity="0"/>
</radialGradient>
<radialGradient id="paint87_radial_400_4157" cx="0" cy="0" r="1" gradientUnits="userSpaceOnUse" gradientTransform="translate(222.959 113.41) rotate(90) scale(6.15321 89.8368)">
<stop stop-color="white"/>
<stop offset="1" stop-color="white" stop-opacity="0"/>
</radialGradient>
<radialGradient id="paint88_radial_400_4157" cx="0" cy="0" r="1" gradientUnits="userSpaceOnUse" gradientTransform="translate(222.959 164.729) rotate(90) scale(6.15321 89.8368)">
<stop stop-color="white"/>
<stop offset="1" stop-color="white" stop-opacity="0"/>
</radialGradient>
<radialGradient id="paint89_radial_400_4157" cx="0" cy="0" r="1" gradientUnits="userSpaceOnUse" gradientTransform="translate(228.092 126.235) rotate(90) scale(6.15321 89.8368)">
<stop stop-color="white"/>
<stop offset="1" stop-color="white" stop-opacity="0"/>
</radialGradient>
<radialGradient id="paint90_radial_400_4157" cx="0" cy="0" r="1" gradientUnits="userSpaceOnUse" gradientTransform="translate(228.092 139.068) rotate(90) scale(6.15321 89.8368)">
<stop stop-color="white"/>
<stop offset="1" stop-color="white" stop-opacity="0"/>
</radialGradient>
<radialGradient id="paint91_radial_400_4157" cx="0" cy="0" r="1" gradientUnits="userSpaceOnUse" gradientTransform="translate(228.092 151.897) rotate(90) scale(6.15321 89.8368)">
<stop stop-color="white"/>
<stop offset="1" stop-color="white" stop-opacity="0"/>
</radialGradient>
<radialGradient id="paint92_radial_400_4157" cx="0" cy="0" r="1" gradientUnits="userSpaceOnUse" gradientTransform="translate(190.985 10.7746) rotate(90) scale(6.15321 18.4596)">
<stop stop-color="white"/>
<stop offset="1" stop-color="white" stop-opacity="0"/>
</radialGradient>
<radialGradient id="paint93_radial_400_4157" cx="0" cy="0" r="1" gradientUnits="userSpaceOnUse" gradientTransform="translate(189.831 23.6037) rotate(90) scale(6.15321 52.9176)">
<stop stop-color="white"/>
<stop offset="1" stop-color="white" stop-opacity="0"/>
</radialGradient>
<radialGradient id="paint94_radial_400_4157" cx="0" cy="0" r="1" gradientUnits="userSpaceOnUse" gradientTransform="translate(188.721 36.4309) rotate(90) scale(6.15321 73.8385)">
<stop stop-color="white"/>
<stop offset="1" stop-color="white" stop-opacity="0"/>
</radialGradient>
<radialGradient id="paint95_radial_400_4157" cx="0" cy="0" r="1" gradientUnits="userSpaceOnUse" gradientTransform="translate(173.283 49.2609) rotate(90) scale(6.15321 182.135)">
<stop stop-color="white"/>
<stop offset="1" stop-color="white" stop-opacity="0"/>
</radialGradient>
<radialGradient id="paint96_radial_400_4157" cx="0" cy="0" r="1" gradientUnits="userSpaceOnUse" gradientTransform="translate(173.283 49.2609) rotate(90) scale(6.15321 182.135)">
<stop stop-color="white"/>
<stop offset="1" stop-color="white" stop-opacity="0"/>
</radialGradient>
<radialGradient id="paint97_radial_400_4157" cx="0" cy="0" r="1" gradientUnits="userSpaceOnUse" gradientTransform="translate(171.034 62.092) rotate(90) scale(6.15321 171.059)">
<stop stop-color="white"/>
<stop offset="1" stop-color="white" stop-opacity="0"/>
</radialGradient>
<radialGradient id="paint98_radial_400_4157" cx="0" cy="0" r="1" gradientUnits="userSpaceOnUse" gradientTransform="translate(170.426 74.9162) rotate(90) scale(6.15321 162.445)">
<stop stop-color="white"/>
<stop offset="1" stop-color="white" stop-opacity="0"/>
</radialGradient>
<radialGradient id="paint99_radial_400_4157" cx="0" cy="0" r="1" gradientUnits="userSpaceOnUse" gradientTransform="translate(102.691 276.225) rotate(-90) scale(6.15321 18.4596)">
<stop stop-color="white"/>
<stop offset="1" stop-color="white" stop-opacity="0"/>
</radialGradient>
<radialGradient id="paint100_radial_400_4157" cx="0" cy="0" r="1" gradientUnits="userSpaceOnUse" gradientTransform="translate(103.845 263.396) rotate(-90) scale(6.15321 52.9176)">
<stop stop-color="white"/>
<stop offset="1" stop-color="white" stop-opacity="0"/>
</radialGradient>
<radialGradient id="paint101_radial_400_4157" cx="0" cy="0" r="1" gradientUnits="userSpaceOnUse" gradientTransform="translate(104.959 250.569) rotate(-90) scale(6.15321 73.8385)">
<stop stop-color="white"/>
<stop offset="1" stop-color="white" stop-opacity="0"/>
</radialGradient>
<radialGradient id="paint102_radial_400_4157" cx="0" cy="0" r="1" gradientUnits="userSpaceOnUse" gradientTransform="translate(190.985 276.225) rotate(-90) scale(6.15321 18.4596)">
<stop stop-color="white"/>
<stop offset="1" stop-color="white" stop-opacity="0"/>
</radialGradient>
<radialGradient id="paint103_radial_400_4157" cx="0" cy="0" r="1" gradientUnits="userSpaceOnUse" gradientTransform="translate(189.831 263.396) rotate(-90) scale(6.15321 52.9176)">
<stop stop-color="white"/>
<stop offset="1" stop-color="white" stop-opacity="0"/>
</radialGradient>
<radialGradient id="paint104_radial_400_4157" cx="0" cy="0" r="1" gradientUnits="userSpaceOnUse" gradientTransform="translate(188.721 250.569) rotate(-90) scale(6.15321 73.8385)">
<stop stop-color="white"/>
<stop offset="1" stop-color="white" stop-opacity="0"/>
</radialGradient>
<radialGradient id="paint105_radial_400_4157" cx="0" cy="0" r="1" gradientUnits="userSpaceOnUse" gradientTransform="translate(173.283 237.739) rotate(-90) scale(6.15321 182.135)">
<stop stop-color="white"/>
<stop offset="1" stop-color="white" stop-opacity="0"/>
</radialGradient>
<radialGradient id="paint106_radial_400_4157" cx="0" cy="0" r="1" gradientUnits="userSpaceOnUse" gradientTransform="translate(171.034 224.908) rotate(-90) scale(6.15321 171.059)">
<stop stop-color="white"/>
<stop offset="1" stop-color="white" stop-opacity="0"/>
</radialGradient>
<radialGradient id="paint107_radial_400_4157" cx="0" cy="0" r="1" gradientUnits="userSpaceOnUse" gradientTransform="translate(170.426 212.084) rotate(-90) scale(6.15321 162.445)">
<stop stop-color="white"/>
<stop offset="1" stop-color="white" stop-opacity="0"/>
</radialGradient>
<radialGradient id="paint108_radial_400_4157" cx="0" cy="0" r="1" gradientUnits="userSpaceOnUse" gradientTransform="translate(111.52 199.251) rotate(-90) scale(6.15321 83.6836)">
<stop stop-color="white"/>
<stop offset="1" stop-color="white" stop-opacity="0"/>
</radialGradient>
<radialGradient id="paint109_radial_400_4157" cx="0" cy="0" r="1" gradientUnits="userSpaceOnUse" gradientTransform="translate(204.55 199.251) rotate(-90) scale(6.15321 83.6836)">
<stop stop-color="white"/>
<stop offset="1" stop-color="white" stop-opacity="0"/>
</radialGradient>
<radialGradient id="paint110_radial_400_4157" cx="0" cy="0" r="1" gradientUnits="userSpaceOnUse" gradientTransform="translate(87.2221 87.7482) rotate(90) scale(6.15321 83.6836)">
<stop stop-color="white"/>
<stop offset="1" stop-color="white" stop-opacity="0"/>
</radialGradient>
<radialGradient id="paint111_radial_400_4157" cx="0" cy="0" r="1" gradientUnits="userSpaceOnUse" gradientTransform="translate(178.31 87.7482) rotate(90) scale(6.15321 83.6836)">
<stop stop-color="white"/>
<stop offset="1" stop-color="white" stop-opacity="0"/>
</radialGradient>
</defs>
</svg>
