<svg width="274" height="253" viewBox="0 0 274 253" fill="none" xmlns="http://www.w3.org/2000/svg">
<path d="M0.5 8.875C0.5 4.73286 3.85786 1.375 8 1.375H266C270.142 1.375 273.5 4.73286 273.5 8.875V40.375H255.5H0.5V8.875Z" stroke="white"/>
<path d="M96.4987 203.042C107.913 203.042 117.165 193.79 117.165 182.376C117.165 170.962 107.913 161.709 96.4987 161.709C85.0848 161.709 75.832 170.962 75.832 182.376C75.832 193.79 85.0848 203.042 96.4987 203.042Z" stroke="white" stroke-width="0.8" stroke-miterlimit="10"/>
<path d="M87.727 112.625L81.4857 128.611L69.0986 133.739L53.3816 126.851L40.9764 139.257L47.8636 154.974L42.7357 167.361L26.75 173.602V191.148L42.7357 197.392L47.8636 209.776L40.9764 225.493L53.3816 237.899L69.0986 231.011L81.4857 236.142L87.727 252.125H105.273L111.517 236.142L123.901 231.011L139.618 237.899L152.024 225.493L145.136 209.776L150.267 197.392L166.25 191.148V173.602L150.267 167.361L145.136 154.974L152.024 139.257L139.618 126.851L123.901 133.739L111.517 128.611L105.273 112.625H87.727Z" stroke="white" stroke-width="0.8" stroke-miterlimit="10"/>
<path d="M212 199.542C217.891 199.542 222.667 194.767 222.667 188.876C222.667 182.985 217.891 178.209 212 178.209C206.109 178.209 201.333 182.985 201.333 188.876C201.333 194.767 206.109 199.542 212 199.542Z" stroke="white" stroke-width="0.8" stroke-miterlimit="10"/>
<path d="M207.472 152.875L204.251 161.126L197.857 163.772L189.745 160.218L183.343 166.62L186.897 174.732L184.251 181.126L176 184.347V193.403L184.251 196.626L186.897 203.018L183.343 211.13L189.745 217.532L197.857 213.978L204.251 216.626L207.472 224.875H216.528L219.751 216.626L226.143 213.978L234.255 217.532L240.657 211.13L237.103 203.018L239.751 196.626L248 193.403V184.347L239.751 181.126L237.103 174.732L240.657 166.62L234.255 160.218L226.143 163.772L219.751 161.126L216.528 152.875H207.472Z" stroke="white" stroke-width="0.8" stroke-miterlimit="10"/>
<path d="M198.503 116.875L223.094 51.875" stroke="white" stroke-width="0.5" stroke-miterlimit="10"/>
<path d="M219.236 87.7497L221.054 82.9395" stroke="white" stroke-width="0.5" stroke-miterlimit="10"/>
<path d="M210.336 111.269L217.41 92.5684" stroke="white" stroke-width="0.5" stroke-miterlimit="10"/>
<path d="M184.374 85.5422L197.198 72.7182L189.427 64.9473L170 84.3746L189.427 103.802L197.198 96.031L190.202 89.0352" stroke="white" stroke-width="0.5" stroke-miterlimit="10"/>
<path d="M237.221 83.207L224.397 96.031L232.168 103.802L251.596 84.3746L232.168 64.9473L224.397 72.7182L231.393 79.714" stroke="white" stroke-width="0.5" stroke-miterlimit="10"/>
<rect y="39.875" width="274" height="1" fill="white"/>
<rect x="19" y="19.875" width="35" height="1" fill="white"/>
<rect x="63" y="19.875" width="35" height="1" fill="white"/>
<path d="M0 40.875H1V183.875C0.447715 183.875 0 183.427 0 182.875V40.875Z" fill="#D9D9D9"/>
<path d="M0 182.875H27V183.875H0.999999C0.447715 183.875 0 183.427 0 182.875Z" fill="#D9D9D9"/>
<path d="M274 40.875H273V183.875C273.552 183.875 274 183.427 274 182.875V40.875Z" fill="#D9D9D9"/>
<path d="M274 182.875H247V183.875H273C273.552 183.875 274 183.427 274 182.875Z" fill="#D9D9D9"/>
</svg>
