<svg width="24" height="19" viewBox="0 0 24 19" fill="none" xmlns="http://www.w3.org/2000/svg">
<g clip-path="url(#clip0_4165_239633)">
<path d="M22.3335 3.20312L22.6845 6.76215L18.9551 5.78342L20.0081 4.18186L22.3335 3.20312Z" fill="#4744C1"/>
<path d="M23.9994 6.40625C24.0433 6.5842 23.8239 12.7235 23.8239 12.7235L19.6557 13.2574L18.0762 8.18576L23.9994 6.40625Z" fill="#4744C1"/>
<path d="M21.2358 11.7893L21.3236 15.6597L18.34 17.1278L14.6106 15.6597L13.0311 18.24L9.30165 18.0621L8.20475 15.2593L4.38757 16.3715L1.71115 14.5475L1.6234 11.7448L0 11.3889V7.60742L8.46801 9.07552L12.8556 11.122L17.0676 8.67513L21.2358 11.7893Z" fill="#4744C1"/>
<path d="M6.01097 0.845268L3.2468 2.35785L4.60695 4.49327L0.526508 5.472L0 7.60741L4.03656 8.54166L1.75503 10.766L4.25594 12.679L8.117 11.4334L9.21389 14.1916C9.21389 14.1916 12.9872 14.2806 13.1627 14.2806L14.5667 11.8338L18.3839 13.3463L21.2797 11.7893L19.4369 9.34244L23.7806 8.89756L24 6.45073L20.0073 5.42751L22.2888 3.24761L20.0512 1.77951L15.7075 2.40234L14.9177 0.0889756L11.2322 0L9.65265 2.35785L6.01097 0.845268ZM12.1097 4.35981C14.2157 4.35981 15.9269 5.56098 15.883 6.98459C15.883 8.40819 14.1718 9.60937 12.0658 9.56488C9.95978 9.56488 8.24863 8.36371 8.2925 6.9401C8.2925 5.472 10.0037 4.31532 12.1097 4.35981Z" fill="#6C69FF"/>
</g>
<defs>
<clipPath id="clip0_4165_239633">
<rect width="24" height="18.24" fill="white"/>
</clipPath>
</defs>
</svg>
