<?xml version="1.0" encoding="UTF-8"?>
<svg id="Layer_2" data-name="Layer 2" xmlns="http://www.w3.org/2000/svg" xmlns:xlink="http://www.w3.org/1999/xlink" viewBox="0 0 1202.92 265.1">
  <defs>
    <style>
      .cls-1 {
        fill: url(#linear-gradient);
      }

      .cls-2 {
        fill: #fff;
      }

      .cls-3 {
        fill: url(#linear-gradient-2);
      }
    </style>
    <linearGradient id="linear-gradient" x1="28.36" y1="247.94" x2="121.88" y2="145.85" gradientTransform="translate(0 278.45) scale(1 -1)" gradientUnits="userSpaceOnUse">
      <stop offset=".12" stop-color="#d274f7"/>
      <stop offset="1" stop-color="#9a74f7"/>
    </linearGradient>
    <linearGradient id="linear-gradient-2" x1="34.1" y1="267.28" x2="132.8" y2="159.54" xlink:href="#linear-gradient"/>
  </defs>
  <g id="Layer_1-2" data-name="Layer 1">
    <g>
      <path class="cls-2" d="m588.93,56.84c-6.66,0-11.76,5.11-11.76,11.99l.22,92.81-74.16-97.03c-3.78-5.1-6.44-7.77-11.77-7.77-6.44,0-11.55,5.11-11.55,11.55v127.89c0,6.88,5.11,11.99,11.77,11.99s11.77-5.1,11.77-11.99v-93.03l74.61,98.36c3.11,4,6.22,6.66,11.1,6.66,6.66,0,11.54-5.1,11.54-11.55v-127.89c0-6.88-5.11-11.99-11.77-11.99Z"/>
      <path class="cls-2" d="m869.54,184.74h-57.51v-115.9c0-6.88-4.88-11.99-11.77-11.99s-11.77,5.33-11.77,11.99v124.79c0,7.11,5.11,12.21,12.21,12.21h68.83c6.22,0,10.65-4.66,10.65-10.65.02-6.01-4.42-10.45-10.64-10.45Z"/>
      <path class="cls-2" d="m960.91,56.84c-43.07,0-76.82,33.3-76.82,75.71s33.75,75.71,76.82,75.71,77.05-33.3,77.05-75.71-33.97-75.71-77.05-75.71Zm.23,129.89c-30.42,0-52.62-22.87-52.62-54.4s22.2-53.95,52.62-53.95,52.62,23.09,52.62,53.95c-.01,31.31-22.43,54.4-52.62,54.4Z"/>
      <path class="cls-2" d="m1190.93,128.33h-34.82c-6.66,0-11.55,4.66-11.55,10.43s4.88,10.43,11.55,10.43h23.28v16.88c-9.33,13.32-25.54,21.09-43.74,21.09-31.53,0-53.95-22.87-53.95-54.84s21.98-53.95,52.62-53.95c15.99,0,27.97,5.77,39.74,18.43,3.78,4.22,6.44,5.55,10.21,5.55,6.22,0,10.88-5.11,10.88-10.66,0-3.55-1.78-6.88-5.55-10.88-12.21-14.66-33.53-23.98-55.07-23.98-43.52,0-77.27,32.86-77.27,75.71s33.75,75.71,77.27,75.71c25.76,0,50.84-12.44,64.39-31.97,2.88-4.44,4-8.89,4-14.44v-21.32c0-7.08-5.1-12.19-11.99-12.19Z"/>
      <path class="cls-2" d="m403.31,66.18c-2.67-5.7-8.39-9.33-14.69-9.33s-12.02,3.64-14.69,9.33l-53.49,124.11c-1.33,2.67-1.77,4.89-1.77,6.66,0,6.22,5.1,11.32,11.54,11.32,5.33,0,9.11-2.89,11.1-8.21l10.94-26.45h72.61l10.9,26.45c2,5.32,5.77,8.21,11.1,8.21,6.44,0,11.54-5.1,11.54-11.32,0-1.77-.44-4-1.77-6.66l-53.32-124.11Zm-41.83,85.13l27.11-65.56v-.11l27.08,65.67h-54.19Z"/>
      <path class="cls-2" d="m708.71,66.18c-2.67-5.7-8.39-9.33-14.69-9.33s-12.02,3.64-14.69,9.33l-53.49,124.11c-1.33,2.67-1.77,4.89-1.77,6.66,0,6.22,5.1,11.32,11.54,11.32,5.33,0,9.11-2.89,11.1-8.21l10.94-26.45h72.61l10.9,26.45c2,5.32,5.77,8.21,11.1,8.21,6.44,0,11.54-5.1,11.54-11.32,0-1.77-.44-4-1.77-6.66l-53.32-124.11Zm-41.83,85.13l27.11-65.56v-.11l27.08,65.67h-54.19Z"/>
      <g>
        <path class="cls-1" d="m217.44,47.06L148.08,7.01c-16.19-9.34-36.29-9.34-52.48,0L26.24,47.06C10.05,56.4,0,73.82,0,92.51v80.1c0,18.69,10.06,36.1,26.24,45.45l69.36,40.04c8.09,4.67,17.17,7.01,26.24,7.01s18.15-2.34,26.24-7.01l69.36-40.04c16.19-9.35,26.24-26.76,26.24-45.45v-80.1c.01-18.68-10.05-36.1-26.24-45.45Zm3.09,125.55c0,10.44-5.62,20.17-14.67,25.4l-69.36,40.04c-9.04,5.22-20.28,5.22-29.33,0l-69.36-40.04c-9.05-5.22-14.67-14.96-14.67-25.4v-80.1c0-10.44,5.62-20.17,14.67-25.4L107.17,27.06c4.52-2.61,9.59-3.92,14.66-3.92s10.14,1.31,14.66,3.92l69.36,40.05c9.05,5.22,14.67,14.96,14.67,25.4v80.1h0Z"/>
        <path class="cls-3" d="m178.24,86.07l-63.3,36.7c-3.84,2.22-5.88,6.3-5.73,10.45-.01.2-.06.38-.06.58v50.68c0,6.39,5.18,11.58,11.58,11.58s11.58-5.18,11.58-11.58v-44.98l57.51-33.36c5.54-3.2,7.43-10.28,4.24-15.82-3.2-5.55-10.29-7.45-15.82-4.25Z"/>
      </g>
    </g>
  </g>
</svg>