<svg width="24" height="24" viewBox="0 0 24 24" fill="none" xmlns="http://www.w3.org/2000/svg">
<rect width="24" height="24" fill="#FF8C00"/>
<path d="M12.0811 4C10.4703 4.00633 8.92719 4.64905 7.78812 5.78812C6.64905 6.92719 6.00633 8.47027 6 10.0811C6.00014 10.7524 6.10835 11.4193 6.32048 12.0561C6.39687 12.2648 6.55029 12.4363 6.74923 12.5354C6.94816 12.6345 7.17749 12.6537 7.39009 12.5889C7.59555 12.5103 7.76334 12.3563 7.85934 12.1584C7.95534 11.9604 7.97233 11.7333 7.90687 11.5233C7.72671 11.0272 7.64639 10.5003 7.67051 9.97298C7.69616 9.12276 7.96846 8.29834 8.45424 7.60009C8.94002 6.90184 9.61833 6.35989 10.4066 6.04022C11.1948 5.72055 12.059 5.63696 12.894 5.79962C13.7289 5.96228 14.4985 6.36418 15.1091 6.95637C15.7197 7.54857 16.1449 8.30552 16.3331 9.13507C16.5212 9.96461 16.4641 10.831 16.1687 11.6286C15.8733 12.4263 15.3524 13.1209 14.6693 13.6278C13.9863 14.1347 13.1705 14.4321 12.3215 14.4838C12.3215 14.4838 11.4682 14.5358 11.0436 14.5879C10.8872 14.6105 10.7321 14.6413 10.5789 14.6801C10.5737 14.6854 10.5674 14.6896 10.5606 14.6925C10.5537 14.6954 10.5463 14.6969 10.5388 14.6969C10.5314 14.6969 10.524 14.6954 10.5171 14.6925C10.5102 14.6896 10.504 14.6854 10.4988 14.6801C10.4913 14.6703 10.4872 14.6583 10.4872 14.646C10.4872 14.6337 10.4913 14.6217 10.4988 14.612L10.631 13.8909L11.4322 10.2855C11.4784 10.0692 11.4368 9.84353 11.3166 9.65796C11.1964 9.4724 11.0074 9.34218 10.7912 9.29597C10.575 9.24975 10.3493 9.29131 10.1637 9.41152C9.97815 9.53172 9.84794 9.72072 9.80172 9.93693C9.80172 9.93693 7.89485 18.7622 7.89485 18.8423C7.8686 18.9455 7.86317 19.0528 7.87887 19.1581C7.89457 19.2633 7.93108 19.3644 7.98627 19.4554C8.04147 19.5464 8.11424 19.6255 8.20034 19.6881C8.28644 19.7506 8.38414 19.7954 8.48774 19.8198H8.53181C8.63549 19.8466 8.7435 19.8523 8.84944 19.8367C8.95538 19.821 9.05711 19.7843 9.14861 19.7286C9.24011 19.673 9.31952 19.5996 9.38216 19.5127C9.4448 19.4258 9.48938 19.3273 9.51329 19.2229C9.51176 19.2096 9.51176 19.1961 9.51329 19.1828C9.53732 19.0787 9.77768 17.9049 9.77768 17.9049C9.86664 17.4722 10.0859 17.0772 10.406 16.7728C10.7262 16.4684 11.1318 16.2694 11.5684 16.2024C11.7527 16.1743 12.5258 16.1222 12.5258 16.1222C14.064 15.9689 15.486 15.2351 16.5022 14.0702C17.5184 12.9054 18.0526 11.3971 17.9959 9.85231C17.9392 8.30752 17.296 6.84239 16.1972 5.75514C15.0983 4.6679 13.6264 4.04026 12.0811 4V4Z" fill="white"/>
<path d="M12.4476 18.0203C12.316 17.9929 12.1803 17.992 12.0483 18.0176C11.9164 18.0431 11.7908 18.0947 11.679 18.1693C11.5671 18.2438 11.4712 18.3399 11.3969 18.4519C11.3225 18.5639 11.2712 18.6895 11.2458 18.8215C11.2176 18.9512 11.2151 19.0852 11.2387 19.2158C11.2623 19.3464 11.3114 19.4711 11.3832 19.5828C11.455 19.6944 11.5481 19.7908 11.6572 19.8664C11.7663 19.942 11.8893 19.9953 12.019 20.0233H12.047C12.1749 20.0542 12.3076 20.0594 12.4375 20.0385C12.5674 20.0177 12.6919 19.9713 12.8037 19.902C12.9155 19.8326 13.0124 19.7418 13.0888 19.6347C13.1653 19.5277 13.2196 19.4065 13.2489 19.2782V19.2221C13.2945 18.9573 13.2369 18.6851 13.0879 18.4615C12.9388 18.2379 12.7097 18.08 12.4476 18.0203Z" fill="white"/>
</svg>
