<svg width="25" height="25" viewBox="0 0 25 25" fill="none" xmlns="http://www.w3.org/2000/svg">
<g clip-path="url(#clip0_3729_165470)">
<path d="M5.24528 3.83719H19.6101C19.7691 5.74832 19.6875 8.03165 19.0874 10.1749C18.3974 12.6192 17.2055 14.7081 16.0137 15.5005L15.5495 15.81L15.5537 20.5523H9.30591L9.26828 15.8058L8.80827 15.4964C7.64151 14.7269 6.45594 12.5209 5.79311 10.0013C5.21182 7.80583 5.13236 5.57268 5.24528 3.83301V3.83719ZM0.398438 8.00656H3.25677C3.38851 8.84921 3.54951 9.69814 3.77115 10.5345C4.02416 11.4922 4.36289 12.3934 4.75181 13.2465C3.21077 12.385 1.58192 10.9004 0.398438 8.00656ZM21.6676 8.00656H24.3984C23.2547 10.7938 21.699 12.2637 20.1998 13.1399C20.549 12.3829 20.8605 11.5925 21.0989 10.7415C21.3498 9.84869 21.5296 8.92867 21.6676 8.00656Z" fill="#91D172"/>
</g>
<defs>
<clipPath id="clip0_3729_165470">
<rect width="24" height="24" fill="white" transform="translate(0.398438 0.5)"/>
</clipPath>
</defs>
</svg>
