<svg width="27" height="26" viewBox="0 0 27 26" fill="none" xmlns="http://www.w3.org/2000/svg">
<path d="M12.7159 20.7732H14.2055V19.3649C15.3069 19.2385 16.1645 18.9 16.7784 18.3493C17.3923 17.7986 17.6992 17.0628 17.6992 16.142C17.6992 15.2212 17.4374 14.4719 16.9138 13.8941C16.3902 13.3163 15.5055 12.7656 14.2596 12.242C13.2124 11.8087 12.4541 11.4205 11.9846 11.0774C11.5152 10.7344 11.2805 10.2739 11.2805 9.69616C11.2805 9.13644 11.4836 8.69408 11.8898 8.36908C12.2961 8.04408 12.8513 7.88158 13.5555 7.88158C14.0971 7.88158 14.5666 8.00796 14.9638 8.26074C15.361 8.51352 15.6951 8.89269 15.9659 9.39824L17.2659 8.77533C16.9589 8.14338 16.5527 7.64685 16.0471 7.28574C15.5416 6.92463 14.9457 6.70796 14.2596 6.63574V5.25449H12.7701V6.63574C11.8492 6.76213 11.1225 7.10067 10.5898 7.65137C10.0572 8.20206 9.79088 8.88366 9.79088 9.69616C9.79088 10.5809 10.0617 11.285 10.6034 11.8087C11.1451 12.3323 11.9576 12.8198 13.0409 13.2712C14.2506 13.7767 15.0812 14.2326 15.5326 14.6389C15.9839 15.0451 16.2096 15.5462 16.2096 16.142C16.2096 16.7198 15.9704 17.1847 15.4919 17.5368C15.0135 17.8889 14.4131 18.0649 13.6909 18.0649C12.9867 18.0649 12.3593 17.8663 11.8086 17.4691C11.2579 17.0719 10.8742 16.5302 10.6576 15.8441L9.2763 16.3045C9.65547 17.135 10.1204 17.7896 10.6711 18.268C11.2218 18.7465 11.9034 19.0941 12.7159 19.3107V20.7732ZM13.5013 23.8337C12.0207 23.8337 10.6214 23.5493 9.30339 22.9805C7.98533 22.4118 6.83429 21.6354 5.85026 20.6514C4.86623 19.6673 4.08984 18.5163 3.52109 17.1982C2.95234 15.8802 2.66797 14.4809 2.66797 13.0003C2.66797 11.5017 2.95234 10.0934 3.52109 8.77533C4.08984 7.45727 4.86623 6.31074 5.85026 5.33574C6.83429 4.36074 7.98533 3.58887 9.30339 3.02012C10.6214 2.45137 12.0207 2.16699 13.5013 2.16699C14.9999 2.16699 16.4082 2.45137 17.7263 3.02012C19.0444 3.58887 20.1909 4.36074 21.1659 5.33574C22.1409 6.31074 22.9128 7.45727 23.4815 8.77533C24.0503 10.0934 24.3346 11.5017 24.3346 13.0003C24.3346 14.4809 24.0503 15.8802 23.4815 17.1982C22.9128 18.5163 22.1409 19.6673 21.1659 20.6514C20.1909 21.6354 19.0444 22.4118 17.7263 22.9805C16.4082 23.5493 14.9999 23.8337 13.5013 23.8337Z" fill="#F45D5D"/>
</svg>
