<svg width="373" height="266" viewBox="0 0 373 266" fill="none" xmlns="http://www.w3.org/2000/svg">
<mask id="mask0_61_1751" style="mask-type:alpha" maskUnits="userSpaceOnUse" x="-99" y="-24" width="569" height="268">
<rect x="-99" y="-24" width="569" height="268" fill="url(#paint0_linear_61_1751)"/>
</mask>
<g mask="url(#mask0_61_1751)">
<g filter="url(#filter0_f_61_1751)">
<circle cx="186" cy="156" r="129" fill="url(#paint1_linear_61_1751)" fill-opacity="0.2"/>
</g>
<path d="M185.553 65.8818V273.075M185.553 65.8818L198.962 60.8123C229.474 49.2761 263.513 49.2761 294.025 60.8123C302.124 63.8741 307.434 71.2877 307.434 79.5319V249.61C307.434 260.931 295.338 268.671 284.218 264.467C260.001 255.311 232.986 255.311 208.77 264.467L185.72 273.182C185.64 273.212 185.553 273.156 185.553 273.075M185.553 65.8818L172.144 60.8123C141.632 49.2761 107.593 49.2761 77.0805 60.8123C68.9822 63.8741 63.6719 71.2877 63.6719 79.5319V249.61C63.6719 260.931 75.7682 268.671 86.8884 264.467C111.105 255.311 138.12 255.311 162.336 264.467L185.386 273.182C185.466 273.212 185.553 273.156 185.553 273.075" stroke="url(#paint2_radial_61_1751)"/>
<path d="M185.553 65.8818V273.075M185.553 65.8818L198.962 60.8123C229.474 49.2761 263.513 49.2761 294.025 60.8123C302.124 63.8741 307.434 71.2877 307.434 79.5319V249.61C307.434 260.931 295.338 268.671 284.218 264.467C260.001 255.311 232.986 255.311 208.77 264.467L185.72 273.182C185.64 273.212 185.553 273.156 185.553 273.075M185.553 65.8818L172.144 60.8123C141.632 49.2761 107.593 49.2761 77.0805 60.8123C68.9822 63.8741 63.6719 71.2877 63.6719 79.5319V249.61C63.6719 260.931 75.7682 268.671 86.8884 264.467C111.105 255.311 138.12 255.311 162.336 264.467L185.386 273.182C185.466 273.212 185.553 273.156 185.553 273.075" stroke="white"/>
<ellipse cx="247.761" cy="125.498" rx="28.3158" ry="28.56" stroke="url(#paint3_radial_61_1751)"/>
<ellipse cx="247.761" cy="125.498" rx="28.3158" ry="28.56" stroke="white"/>
<path d="M241.605 116.388C241.605 115.515 242.572 114.99 243.304 115.465L257.418 124.616C258.086 125.05 258.086 126.028 257.418 126.462L243.304 135.613C242.572 136.088 241.605 135.563 241.605 134.69V116.388Z" stroke="url(#paint4_radial_61_1751)"/>
<path d="M241.605 116.388C241.605 115.515 242.572 114.99 243.304 115.465L257.418 124.616C258.086 125.05 258.086 126.028 257.418 126.462L243.304 135.613C242.572 136.088 241.605 135.563 241.605 134.69V116.388Z" stroke="white"/>
<path d="M80.9766 87.0859H168.386" stroke="url(#paint5_radial_61_1751)" stroke-linecap="round"/>
<path d="M80.9766 87.0859H168.386" stroke="white" stroke-linecap="round"/>
<path d="M81.8438 108.215H169.253" stroke="url(#paint6_radial_61_1751)" stroke-linecap="round"/>
<path d="M81.8438 108.215H169.253" stroke="white" stroke-linecap="round"/>
<path d="M82.707 129.344H170.117" stroke="url(#paint7_radial_61_1751)" stroke-linecap="round"/>
<path d="M82.707 129.344H170.117" stroke="white" stroke-linecap="round"/>
</g>
<defs>
<filter id="filter0_f_61_1751" x="-127" y="-157" width="626" height="626" filterUnits="userSpaceOnUse" color-interpolation-filters="sRGB">
<feFlood flood-opacity="0" result="BackgroundImageFix"/>
<feBlend mode="normal" in="SourceGraphic" in2="BackgroundImageFix" result="shape"/>
<feGaussianBlur stdDeviation="92" result="effect1_foregroundBlur_61_1751"/>
</filter>
<linearGradient id="paint0_linear_61_1751" x1="185.5" y1="82.7359" x2="185.5" y2="216.736" gradientUnits="userSpaceOnUse">
<stop stop-color="#D9D9D9"/>
<stop offset="1" stop-color="#D9D9D9" stop-opacity="0"/>
</linearGradient>
<linearGradient id="paint1_linear_61_1751" x1="57" y1="27" x2="326.956" y2="40.1843" gradientUnits="userSpaceOnUse">
<stop offset="0.0364583" stop-color="#DED1E1"/>
<stop offset="0.911458" stop-color="#CA2CF1"/>
</linearGradient>
<radialGradient id="paint2_radial_61_1751" cx="0" cy="0" r="1" gradientUnits="userSpaceOnUse" gradientTransform="translate(168.216 78.554) rotate(90) scale(173.573 191.424)">
<stop stop-color="white"/>
<stop offset="1" stop-color="white" stop-opacity="0"/>
</radialGradient>
<radialGradient id="paint3_radial_61_1751" cx="0" cy="0" r="1" gradientUnits="userSpaceOnUse" gradientTransform="translate(243.733 103.758) rotate(90) scale(44.8558 44.4723)">
<stop stop-color="white"/>
<stop offset="1" stop-color="white" stop-opacity="0"/>
</radialGradient>
<radialGradient id="paint4_radial_61_1751" cx="0" cy="0" r="1" gradientUnits="userSpaceOnUse" gradientTransform="translate(248.997 117.032) rotate(90) scale(17.5523 13.535)">
<stop stop-color="white"/>
<stop offset="1" stop-color="white" stop-opacity="0"/>
</radialGradient>
<radialGradient id="paint5_radial_61_1751" cx="0" cy="0" r="1" gradientUnits="userSpaceOnUse" gradientTransform="translate(118.465 87.2054) rotate(90) scale(0.785291 68.642)">
<stop stop-color="white"/>
<stop offset="1" stop-color="white" stop-opacity="0"/>
</radialGradient>
<radialGradient id="paint6_radial_61_1751" cx="0" cy="0" r="1" gradientUnits="userSpaceOnUse" gradientTransform="translate(119.332 108.334) rotate(90) scale(0.785291 68.642)">
<stop stop-color="white"/>
<stop offset="1" stop-color="white" stop-opacity="0"/>
</radialGradient>
<radialGradient id="paint7_radial_61_1751" cx="0" cy="0" r="1" gradientUnits="userSpaceOnUse" gradientTransform="translate(120.195 129.463) rotate(90) scale(0.785291 68.642)">
<stop stop-color="white"/>
<stop offset="1" stop-color="white" stop-opacity="0"/>
</radialGradient>
</defs>
</svg>
