<svg width="550" height="550" viewBox="0 0 550 550" fill="none" xmlns="http://www.w3.org/2000/svg">
<rect width="550" height="550" fill="#171E38"/>
<path d="M274.636 289.532C283.071 289.532 289.908 282.719 289.908 274.314C289.908 265.909 283.071 259.096 274.636 259.096C266.202 259.096 259.364 265.909 259.364 274.314C259.364 282.719 266.202 289.532 274.636 289.532Z" fill="#F8BF1E"/>
<path d="M396.414 289.532C404.848 289.532 411.686 282.719 411.686 274.314C411.686 265.909 404.848 259.096 396.414 259.096C387.979 259.096 381.142 265.909 381.142 274.314C381.142 282.719 387.979 289.532 396.414 289.532Z" fill="#F8BF1E"/>
<path d="M396.414 411.076C404.848 411.076 411.686 404.262 411.686 395.858C411.686 387.453 404.848 380.64 396.414 380.64C387.979 380.64 381.142 387.453 381.142 395.858C381.142 404.262 387.979 411.076 396.414 411.076Z" fill="#F8BF1E"/>
<path d="M441.224 149.968C439.616 127.742 421.732 109.72 399.426 108.119C385.159 107.117 372.298 112.524 363.255 121.735C356.423 128.743 347.179 132.948 337.332 132.948H333.715C323.668 132.948 314.223 128.743 307.19 121.534C298.951 113.124 287.497 108.119 274.837 108.119C262.177 108.119 250.722 113.325 242.483 121.534C235.45 128.743 226.006 132.948 215.958 132.948H212.542C202.695 132.948 193.251 129.143 186.418 122.135C185.012 120.734 183.605 119.332 182.198 118.13C165.118 104.314 139.998 104.715 123.521 119.332C103.626 136.752 102.823 167.188 121.31 185.61C121.511 185.81 121.712 186.01 121.913 186.211C129.147 193.019 132.965 202.63 132.965 212.442V215.846C132.965 225.858 128.745 235.269 121.511 242.277C113.071 250.487 108.047 261.9 108.047 274.515C108.047 287.13 113.272 298.544 121.511 306.754C128.745 313.762 132.965 323.173 132.965 333.185V337.79C132.965 347.602 128.745 356.812 121.712 363.621C112.87 372.231 107.444 384.445 108.047 397.861C109.052 421.489 128.343 440.511 151.855 441.313C165.519 441.713 177.777 436.306 186.418 427.296C193.251 420.288 202.494 415.882 212.341 415.882H216.159C226.006 415.882 235.249 420.087 242.082 427.296C251.124 436.707 264.186 442.113 278.454 441.112C300.759 439.51 318.845 421.489 320.453 399.062C322.261 372.431 301.362 350.405 275.038 350.405C262.578 350.405 251.124 355.411 242.885 363.621C235.852 370.629 226.408 374.834 216.561 374.834H212.341C202.494 374.834 192.849 371.029 185.815 363.821C185.614 363.62 185.614 363.621 185.413 363.42C178.179 356.412 173.959 347.001 173.959 336.989V332.984C173.959 322.973 178.179 313.562 185.413 306.553C193.853 298.343 198.877 286.93 198.877 274.315C198.877 261.7 193.652 250.287 185.413 242.077C178.179 235.069 173.959 225.658 173.959 215.646V212.041C173.959 202.03 178.179 192.618 185.213 185.61C185.413 185.41 185.413 185.41 185.614 185.21C185.815 185.01 185.815 185.01 186.016 184.809C193.05 177.801 202.494 173.596 212.542 173.596H216.159C226.207 173.596 235.651 177.801 242.684 185.01C250.923 193.419 262.378 198.425 275.038 198.425C287.697 198.425 299.152 193.219 307.391 185.01C314.424 177.801 323.869 173.596 333.916 173.596H337.131C347.179 173.596 356.624 177.801 363.657 185.01C371.896 193.419 383.35 198.425 396.01 198.425C422.134 198.626 443.033 176.599 441.224 149.968Z" fill="#F8BF1E"/>
</svg>
