<svg width="550" height="550" viewBox="0 0 550 550" fill="none" xmlns="http://www.w3.org/2000/svg">
<rect width="550" height="550" fill="white"/>
<path d="M504.164 273.99C504.364 319.315 491.119 363.681 466.104 401.478C441.088 439.275 405.427 468.806 363.628 486.335C321.83 503.864 275.772 508.605 231.279 499.958C186.786 491.311 145.857 469.664 113.666 437.755C81.4763 405.846 59.4714 365.107 50.4343 320.692C41.3973 276.277 45.734 230.179 62.8961 188.228C80.0582 146.278 109.275 110.359 146.851 85.0129C184.428 59.6672 228.676 46.0335 274.001 45.836C334.777 45.5712 393.169 69.4596 436.333 112.246C479.497 155.033 503.896 213.214 504.164 273.99Z" fill="#8DC63F"/>
<path d="M486.978 274.073C487.168 315.992 474.923 357.026 451.792 391.985C428.661 426.945 395.682 454.261 357.026 470.478C318.371 486.694 275.774 491.084 234.624 483.091C193.473 475.099 155.617 455.083 125.842 425.576C96.0675 396.068 75.7115 358.394 67.3486 317.317C58.9856 276.24 62.9913 233.606 78.8591 194.806C94.7269 156.005 121.744 122.782 156.494 99.3367C191.244 75.8915 232.166 63.2775 274.085 63.0898C330.293 62.8426 384.297 84.9308 424.221 124.496C464.145 164.062 486.719 217.865 486.978 274.073Z" fill="#F9E988"/>
<path d="M278.902 76.8246C292.375 74.4331 306.164 74.4331 319.637 76.8246C333.241 78.9786 346.39 83.3842 358.546 89.8605C370.635 96.503 381.08 105.52 391.476 113.973C401.871 122.425 412.217 131.077 422.065 140.543C432.117 149.861 440.89 160.471 448.153 172.095C455.632 183.627 461.761 195.98 466.42 208.911C475.271 234.916 478.343 262.931 473.926 289.651H472.614C468.18 263.164 462.169 237.922 452.687 213.909C448.236 201.818 442.999 190.03 437.01 178.621C430.762 167.211 423.876 156.161 416.385 145.525C408.768 134.772 399.432 125.346 388.752 117.626C377.992 109.954 365.62 104.989 353.647 100.273C341.674 95.5565 329.8 90.6742 317.312 87.0873C304.824 83.5003 292.137 80.8101 278.885 78.2029L278.902 76.8246Z" fill="white"/>
<path d="M382.505 199.261C367.128 194.811 351.186 188.501 335.044 182.124C334.114 178.072 330.527 173.024 323.271 166.863C312.726 157.713 292.914 157.945 275.793 161.997C256.895 157.547 238.23 155.969 220.312 160.336C73.7612 200.706 156.859 299.198 103.055 398.205C110.71 414.446 193.227 509.201 312.626 483.777C312.626 483.777 271.791 385.65 363.939 338.555C438.684 300.211 492.688 229.269 382.505 199.261Z" fill="#8BC53F"/>
<path d="M400.607 263.711C400.617 265.468 400.105 267.188 399.137 268.655C398.169 270.121 396.788 271.268 395.169 271.949C393.549 272.631 391.764 272.817 390.038 272.483C388.313 272.15 386.725 271.313 385.476 270.078C384.226 268.842 383.371 267.264 383.019 265.542C382.666 263.821 382.832 262.034 383.496 260.406C384.159 258.779 385.29 257.385 386.745 256.401C388.201 255.417 389.916 254.886 391.673 254.876C394.028 254.867 396.29 255.792 397.965 257.448C399.639 259.104 400.589 261.356 400.607 263.711Z" fill="white"/>
<path d="M275.794 161.931C286.472 162.695 325.082 175.216 335.045 182.058C326.742 157.979 298.794 154.774 275.794 161.931Z" fill="#009345"/>
<path d="M285.958 222.825C285.962 230.931 283.561 238.857 279.059 245.599C274.558 252.341 268.158 257.597 260.67 260.701C253.181 263.806 244.94 264.62 236.989 263.04C229.037 261.461 221.733 257.559 216 251.828C210.266 246.096 206.361 238.794 204.778 230.843C203.196 222.893 204.006 214.651 207.108 207.161C210.209 199.671 215.463 193.27 222.203 188.765C228.943 184.261 236.867 181.857 244.974 181.857C250.355 181.855 255.685 182.913 260.657 184.971C265.629 187.029 270.147 190.046 273.953 193.85C277.759 197.655 280.778 202.172 282.838 207.143C284.898 212.115 285.958 217.443 285.958 222.825Z" fill="white"/>
<path d="M273.802 223.189C273.802 228.891 272.111 234.465 268.943 239.206C265.775 243.946 261.273 247.641 256.005 249.823C250.738 252.005 244.941 252.576 239.349 251.464C233.757 250.352 228.62 247.606 224.588 243.574C220.556 239.542 217.811 234.406 216.698 228.814C215.586 223.221 216.157 217.425 218.339 212.157C220.521 206.89 224.216 202.387 228.957 199.219C233.698 196.052 239.271 194.361 244.973 194.361C252.619 194.361 259.952 197.398 265.358 202.805C270.764 208.211 273.802 215.544 273.802 223.189Z" fill="#58595B"/>
<path d="M433.802 281.778C400.589 305.176 362.827 322.928 309.255 322.928C284.179 322.928 279.098 296.358 262.525 309.344C253.973 316.087 223.816 331.165 199.886 330.019C175.956 328.873 137.164 314.841 126.353 263.76C122.069 314.841 119.877 352.471 100.697 395.598C138.891 456.759 229.96 503.937 312.626 483.611C303.742 421.586 357.945 360.841 388.483 329.754C400.108 317.98 422.194 298.766 433.802 281.745V281.778Z" fill="#8BC53F"/>
<path d="M432.508 283.306C422.195 292.706 409.923 299.664 397.435 305.808C384.795 311.81 371.618 316.608 358.078 320.139C344.528 323.643 330.396 326.283 316.081 324.988C301.767 323.693 287.136 318.827 277.654 308.1L278.103 307.585C289.727 315.124 303.145 317.781 316.496 318.163C330.029 318.575 343.566 317.46 356.85 314.842C370.268 312.033 383.395 307.974 396.057 302.719C408.728 297.488 421.265 291.427 432.059 282.792L432.508 283.306Z" fill="#58595B"/>
</svg>
