<svg width="500" height="501" viewBox="0 0 500 501" fill="none" xmlns="http://www.w3.org/2000/svg">
<rect width="500" height="500" transform="translate(0 0.397949)" fill="#FF007A"/>
<path d="M209.47 129.84C205.704 129.255 205.545 129.187 207.318 128.914C210.715 128.392 218.736 129.104 224.262 130.418C237.166 133.486 248.908 141.343 261.441 155.298L264.771 159.005L269.534 158.239C289.601 155.014 310.015 157.577 327.089 165.465C331.786 167.635 339.193 171.954 340.118 173.064C340.413 173.418 340.955 175.695 341.321 178.126C342.589 186.532 341.955 192.976 339.383 197.79C337.984 200.408 337.905 201.238 338.846 203.48C339.598 205.269 341.691 206.592 343.764 206.589C348.007 206.584 352.574 199.725 354.691 190.181L355.531 186.389L357.197 188.275C366.33 198.624 373.504 212.736 374.737 222.782L375.058 225.401L373.522 223.02C370.88 218.923 368.225 216.134 364.826 213.884C358.697 209.829 352.217 208.449 335.057 207.545C319.558 206.729 310.786 205.404 302.088 202.568C287.29 197.744 279.83 191.318 262.251 168.255C254.444 158.01 249.618 152.343 244.817 147.779C233.909 137.407 223.191 131.968 209.47 129.84Z" fill="white"/>
<path d="M343.61 152.712C343.999 145.848 344.93 141.32 346.802 137.186C347.543 135.548 348.237 134.209 348.344 134.209C348.451 134.209 348.129 135.417 347.628 136.894C346.268 140.906 346.044 146.395 346.982 152.78C348.171 160.884 348.848 162.052 357.412 170.805C361.429 174.91 366.101 180.088 367.795 182.311L370.874 186.353L367.795 183.464C364.028 179.932 355.367 173.042 353.454 172.057C352.171 171.398 351.98 171.409 351.189 172.196C350.459 172.922 350.306 174.013 350.205 179.168C350.048 187.203 348.952 192.36 346.309 197.517C344.879 200.306 344.654 199.711 345.948 196.562C346.914 194.212 347.012 193.179 347.004 185.4C346.989 169.772 345.134 166.015 334.253 159.578C331.497 157.948 326.955 155.597 324.161 154.353C321.366 153.109 319.147 152.026 319.227 151.944C319.535 151.638 330.147 154.735 334.418 156.378C340.771 158.822 341.82 159.138 342.591 158.844C343.108 158.646 343.359 157.14 343.61 152.712Z" fill="white"/>
<path d="M216.784 179.448C209.138 168.921 204.407 152.78 205.431 140.714L205.748 136.98L207.488 137.298C210.757 137.894 216.392 139.992 219.031 141.594C226.273 145.993 229.408 151.783 232.598 166.652C233.532 171.008 234.759 175.937 235.323 177.605C236.23 180.291 239.661 186.564 242.452 190.639C244.461 193.573 243.125 194.963 238.684 194.562C231.901 193.95 222.712 187.608 216.784 179.448Z" fill="white"/>
<path d="M334.339 257.798C298.604 243.409 286.019 230.921 286.019 209.849C286.019 206.747 286.125 204.21 286.256 204.21C286.385 204.21 287.768 205.234 289.328 206.484C296.574 212.297 304.688 214.779 327.153 218.057C340.371 219.985 347.811 221.542 354.672 223.819C376.483 231.052 389.978 245.731 393.196 265.725C394.131 271.535 393.583 282.43 392.066 288.171C390.869 292.707 387.217 300.882 386.248 301.195C385.98 301.283 385.716 300.253 385.648 298.853C385.28 291.344 381.486 284.036 375.114 278.56C367.87 272.335 358.137 267.379 334.339 257.798Z" fill="white"/>
<path d="M309.249 263.774C308.801 261.111 308.025 257.708 307.524 256.214L306.611 253.497L308.305 255.398C310.649 258.028 312.502 261.394 314.071 265.878C315.269 269.3 315.403 270.318 315.394 275.878C315.385 281.338 315.235 282.482 314.13 285.561C312.385 290.418 310.22 293.863 306.588 297.559C300.06 304.202 291.668 307.881 279.557 309.407C277.452 309.671 271.316 310.118 265.922 310.398C252.328 311.106 243.381 312.566 235.342 315.388C234.185 315.795 233.154 316.042 233.049 315.937C232.724 315.613 238.197 312.35 242.719 310.173C249.093 307.101 255.439 305.426 269.657 303.058C276.681 301.888 283.934 300.469 285.776 299.904C303.17 294.571 312.111 280.809 309.249 263.774Z" fill="white"/>
<path d="M325.631 292.867C320.883 282.661 319.793 272.806 322.393 263.617C322.672 262.634 323.119 261.83 323.389 261.83C323.657 261.83 324.778 262.436 325.878 263.176C328.066 264.649 332.454 267.13 344.144 273.503C358.732 281.457 367.05 287.616 372.706 294.652C377.659 300.815 380.725 307.832 382.2 316.39C383.035 321.238 382.546 332.903 381.302 337.785C377.379 353.176 368.264 365.266 355.262 372.321C353.357 373.354 351.647 374.203 351.462 374.206C351.277 374.211 351.971 372.446 353.004 370.285C357.379 361.141 357.876 352.248 354.57 342.349C352.545 336.288 348.417 328.892 340.082 316.393C330.39 301.859 328.015 297.992 325.631 292.867Z" fill="white"/>
<path d="M191.407 347.936C204.668 336.74 221.168 328.785 236.197 326.344C242.675 325.291 253.465 325.709 259.464 327.244C269.078 329.705 277.678 335.216 282.152 341.781C286.523 348.199 288.398 353.79 290.351 366.233C291.121 371.141 291.959 376.07 292.212 377.186C293.678 383.634 296.532 388.788 300.068 391.377C305.684 395.487 315.355 395.743 324.868 392.032C326.483 391.402 327.885 390.967 327.984 391.065C328.328 391.408 323.538 394.614 320.158 396.302C315.611 398.574 311.994 399.452 307.19 399.452C298.477 399.452 291.243 395.019 285.207 385.982C284.019 384.203 281.35 378.875 279.274 374.143C272.901 359.607 269.754 355.179 262.354 350.333C255.915 346.116 247.609 345.36 241.362 348.423C233.155 352.448 230.865 362.935 236.743 369.582C239.079 372.223 243.436 374.502 246.998 374.945C253.662 375.774 259.39 370.704 259.39 363.975C259.39 359.607 257.711 357.113 253.483 355.206C247.71 352.6 241.504 355.646 241.534 361.069C241.546 363.382 242.553 364.834 244.871 365.884C246.359 366.557 246.394 366.61 245.181 366.358C239.883 365.26 238.642 358.873 242.901 354.633C248.015 349.543 258.59 351.79 262.221 358.737C263.746 361.655 263.924 367.467 262.593 370.976C259.617 378.831 250.938 382.962 242.133 380.714C236.138 379.183 233.697 377.527 226.469 370.082C213.91 357.145 209.034 354.638 190.929 351.811L187.459 351.27L191.407 347.936Z" fill="white"/>
<path fill-rule="evenodd" clip-rule="evenodd" d="M96.7061 58.1362C138.647 109.041 203.31 188.297 206.52 192.734C209.17 196.398 208.172 199.691 203.632 202.273C201.107 203.708 195.915 205.163 193.316 205.163C190.376 205.163 187.064 203.747 184.652 201.459C182.948 199.843 176.067 189.568 160.184 164.923C148.032 146.067 137.861 130.423 137.583 130.161C136.942 129.556 136.953 129.576 158.945 168.926C172.755 193.635 177.416 202.37 177.416 203.538C177.416 205.914 176.768 207.164 173.836 210.433C168.95 215.884 166.765 222.01 165.189 234.687C163.421 248.898 158.45 258.936 144.674 276.116C136.611 286.173 135.291 288.017 133.256 292.07C130.693 297.175 129.988 300.033 129.703 306.479C129.401 313.295 129.989 317.696 132.071 324.212C133.894 329.917 135.796 333.684 140.661 341.217C144.859 347.719 147.275 352.551 147.275 354.441C147.275 355.944 147.562 355.946 154.067 354.478C169.634 350.963 182.274 344.78 189.383 337.204C193.782 332.514 194.815 329.924 194.849 323.498C194.87 319.295 194.723 318.414 193.587 315.997C191.737 312.061 188.369 308.789 180.948 303.715C171.225 297.067 167.071 291.716 165.924 284.356C164.983 278.318 166.075 274.057 171.454 262.783C177.022 251.112 178.402 246.14 179.335 234.377C179.938 226.777 180.773 223.78 182.956 221.374C185.234 218.865 187.284 218.016 192.919 217.245C202.107 215.991 207.958 213.613 212.767 209.181C216.939 205.338 218.685 201.633 218.953 196.057L219.156 191.83L216.825 189.112C208.382 179.268 91.0521 50.3979 90.5325 50.3979C90.4215 50.3979 93.1997 53.8804 96.7061 58.1362ZM152.015 314.19C153.924 310.809 152.909 306.463 149.716 304.34C146.7 302.334 142.013 303.28 142.013 305.893C142.013 306.691 142.454 307.272 143.448 307.784C145.122 308.645 145.244 309.614 143.927 311.593C142.592 313.598 142.701 315.361 144.231 316.558C146.696 318.489 150.186 317.428 152.015 314.19Z" fill="white"/>
<path fill-rule="evenodd" clip-rule="evenodd" d="M224.954 219.462C220.641 220.788 216.448 225.359 215.151 230.152C214.359 233.077 214.808 238.206 215.994 239.791C217.91 242.349 219.763 243.024 224.78 242.988C234.603 242.92 243.142 238.707 244.135 233.44C244.949 229.123 241.199 223.14 236.033 220.513C233.367 219.159 227.697 218.621 224.954 219.462ZM236.438 228.442C237.953 226.289 237.29 223.963 234.714 222.39C229.807 219.394 222.388 221.873 222.388 226.508C222.388 228.815 226.257 231.333 229.804 231.333C232.164 231.333 235.394 229.925 236.438 228.442Z" fill="white"/>
</svg>
