<svg width="550" height="550" viewBox="0 0 550 550" fill="none" xmlns="http://www.w3.org/2000/svg">
<circle cx="275" cy="275" r="275" fill="#E84142"/>
<path fill-rule="evenodd" clip-rule="evenodd" d="M291.457 81.6345C281.929 65.1778 266.772 65.1778 257.244 81.6345L84.2323 386.3C74.7048 402.973 82.5 416.182 101.555 416.182H188.386C205.925 415.099 221.732 405.788 231.26 391.064L335.847 209.823C343.425 194.233 343.425 175.827 335.847 160.237L304.665 105.453L291.457 81.6345ZM406.436 282.146C396.909 265.689 381.535 265.689 372.007 282.146L311.594 386.3C302.283 402.756 310.078 416.181 328.917 416.181H448.444C467.499 416.181 475.294 402.756 465.767 386.3L406.436 282.146Z" fill="white"/>
</svg>
