<svg width="550" height="551" viewBox="0 0 550 551" fill="none" xmlns="http://www.w3.org/2000/svg">
<path d="M541.772 341.562C505.039 488.902 355.808 578.57 208.451 541.828C61.1562 505.096 -28.5117 355.855 8.23678 208.528C44.953 61.1721 194.184 -28.5025 341.495 8.22987C488.842 44.9623 578.504 194.219 541.768 341.565L541.77 341.562H541.772Z" fill="#F3BA2F"/>
<path fill-rule="evenodd" clip-rule="evenodd" d="M275.031 174.554L203.813 245.771L203.815 245.768L162.378 204.33L275.031 91.6777L387.72 204.364L346.282 245.802L275.031 174.554ZM133.117 233.585L91.6777 275.03L133.114 316.461L174.554 275.021L133.117 233.585ZM203.814 304.297L275.031 375.51L346.281 304.263L387.741 345.679L387.721 345.701L275.031 458.386L162.379 345.733L162.32 345.674L203.814 304.297ZM416.949 233.611L375.509 275.051L416.947 316.488L458.385 275.048L416.949 233.611Z" fill="white"/>
<path d="M317.06 275.01H317.077L275.032 232.962L243.954 264.031V264.031L240.384 267.603L233.021 274.968L232.962 275.025L233.021 275.085L275.032 317.102L317.08 275.054L317.101 275.031L317.063 275.01" fill="white"/>
</svg>
