<svg width="550" height="551" viewBox="0 0 550 551" fill="none" xmlns="http://www.w3.org/2000/svg">
<path d="M541.772 341.562C505.039 488.902 355.808 578.57 208.451 541.828C61.1562 505.096 -28.5117 355.855 8.23678 208.528C44.953 61.1721 194.184 -28.5025 341.495 8.22987C488.842 44.9623 578.504 194.219 541.768 341.565L541.77 341.562H541.772Z" fill="#F7931A"/>
<path fill-rule="evenodd" clip-rule="evenodd" d="M396.278 235.847C401.752 199.247 373.887 179.573 335.783 166.448L348.144 116.869L317.964 109.349L305.931 157.622C297.997 155.644 289.849 153.779 281.75 151.931L293.871 103.339L263.71 95.8184L251.342 145.381C244.776 143.886 238.327 142.409 232.071 140.852L232.106 140.696L190.487 130.303L182.458 162.537C182.458 162.537 204.85 167.67 204.378 167.986C216.599 171.036 218.809 179.126 218.442 185.539L204.362 242.021C205.203 242.234 206.295 242.544 207.499 243.028C207.218 242.958 206.931 242.886 206.64 242.813L206.624 242.809C205.879 242.623 205.104 242.429 204.309 242.238L184.573 321.361C183.079 325.074 179.288 330.647 170.744 328.531C171.046 328.969 148.809 323.057 148.809 323.057L133.825 357.603L173.099 367.394C177.4 368.472 181.65 369.58 185.857 370.677C188.797 371.443 191.716 372.204 194.617 372.946L182.128 423.093L212.273 430.614L224.641 380.998C232.876 383.234 240.868 385.296 248.692 387.24L236.366 436.621L266.547 444.141L279.035 394.088C330.498 403.828 369.195 399.901 385.483 353.352C398.607 315.875 384.829 294.258 357.755 280.162C377.475 275.614 392.328 262.644 396.288 235.851L396.279 235.845L396.278 235.847ZM327.324 332.54C318.767 366.924 264.946 352.709 240.321 346.205L240.319 346.204C238.105 345.62 236.127 345.097 234.439 344.678L251.012 278.241C253.069 278.755 255.584 279.319 258.433 279.959L258.433 279.959C283.904 285.675 336.091 297.387 327.325 332.54H327.324ZM263.542 249.126C284.072 254.605 328.858 266.557 336.657 235.306H336.66C344.625 203.344 301.1 193.708 279.843 189.002C277.452 188.472 275.342 188.005 273.619 187.576L258.594 247.83C260.012 248.184 261.677 248.628 263.542 249.126Z" fill="white"/>
</svg>
