<svg width="550" height="550" viewBox="0 0 550 550" fill="none" xmlns="http://www.w3.org/2000/svg">
<circle cx="275" cy="275" r="275" fill="#13B5EC"/>
<path fill-rule="evenodd" clip-rule="evenodd" d="M297.916 220.025L359.791 183.75V256.3L297.916 220.025ZM359.791 375.487L277.291 423.854L194.791 375.487V290.845L277.291 339.212L359.791 290.845V375.487ZM194.791 183.75L256.666 220.025L194.791 256.3V183.75ZM287.604 237.296L349.479 273.571L287.604 309.846V237.296ZM266.979 309.846L205.104 273.571L266.979 237.296V309.846ZM349.479 166.474L277.291 207.932L205.104 166.474L277.291 123.29L349.479 166.474ZM174.166 159.565V385.853L277.291 444.584L380.416 385.853V159.565L277.291 100.834L174.166 159.565Z" fill="white"/>
</svg>
