<svg width="550" height="551" viewBox="0 0 550 551" fill="none" xmlns="http://www.w3.org/2000/svg">
<path d="M541.772 341.562C505.039 488.902 355.808 578.57 208.451 541.828C61.1562 505.096 -28.5117 355.855 8.23678 208.528C44.953 61.1721 194.184 -28.5025 341.495 8.22987C488.842 44.9623 578.504 194.219 541.768 341.565L541.771 341.562H541.772Z" fill="#23292F"/>
<path d="M410.262 114.597H465.763L350.261 228.958C308.433 270.351 240.617 270.351 198.759 228.958L83.2119 114.597H138.758L226.509 201.47C253.112 227.69 295.84 227.69 322.443 201.47L410.262 114.597Z" fill="white"/>
<path d="M138.048 432.602H82.5098L198.761 317.535C240.59 276.142 308.406 276.142 350.264 317.535L466.515 432.602H411.015L322.513 345.023C295.91 318.803 253.183 318.803 226.579 345.023L138.048 432.602Z" fill="white"/>
</svg>
