<svg width="550" height="551" viewBox="0 0 550 551" fill="none" xmlns="http://www.w3.org/2000/svg">
<path d="M541.772 341.562C505.039 488.902 355.808 578.57 208.451 541.828C61.1562 505.096 -28.5117 355.855 8.23678 208.528C44.953 61.1721 194.184 -28.5025 341.495 8.22987C488.842 44.9623 578.504 194.219 541.768 341.565L541.77 341.562H541.772Z" fill="#50AF95"/>
<path fill-rule="evenodd" clip-rule="evenodd" d="M309.834 306.212V306.212C307.89 306.358 297.842 306.957 275.429 306.957C257.602 306.957 244.945 306.423 240.505 306.212V306.212C171.613 303.181 120.192 291.189 120.192 276.83C120.192 262.472 171.613 250.496 240.505 247.417V294.268C245.01 294.592 257.91 295.354 275.737 295.354C297.129 295.354 307.841 294.463 309.769 294.284V247.449C378.515 250.512 429.823 262.504 429.823 276.83C429.823 291.157 378.531 303.149 309.769 306.196V306.196L309.834 306.212ZM309.834 242.604V200.679H405.774V136.746H144.566V200.679H240.489V242.587C162.522 246.169 103.889 261.613 103.889 280.12C103.889 298.628 162.522 314.056 240.489 317.654V452.001H309.818V317.605C387.607 314.023 446.143 298.595 446.143 280.104C446.143 261.613 387.656 246.185 309.818 242.587V242.587L309.834 242.604Z" fill="white"/>
</svg>
