<svg width="550" height="550" viewBox="0 0 550 550" fill="none" xmlns="http://www.w3.org/2000/svg">
<path d="M275 550C427.397 550 550 427.397 550 275C550 122.603 427.397 0 275 0C122.603 0 0 122.603 0 275C0 427.397 122.603 550 275 550Z" fill="#2775CA"/>
<path d="M350.624 318.542C350.624 278.439 326.561 264.689 278.436 258.96C244.061 254.376 237.186 245.21 237.186 229.167C237.186 213.123 248.646 202.814 271.561 202.814C292.186 202.814 303.646 209.689 309.374 226.876C310.521 230.314 313.958 232.604 317.396 232.604H335.727C340.311 232.604 343.749 229.167 343.749 224.585V223.439C339.165 198.229 318.54 178.751 292.186 176.46V148.96C292.186 144.376 288.749 140.939 283.021 139.792H265.833C261.249 139.792 257.811 143.229 256.665 148.96V175.314C222.29 179.898 200.521 202.814 200.521 231.46C200.521 269.273 223.436 284.167 271.561 289.898C303.646 295.626 313.958 302.501 313.958 320.835C313.958 339.17 297.915 351.773 276.146 351.773C246.352 351.773 236.04 339.167 232.602 321.979C231.458 317.398 228.021 315.104 224.583 315.104H205.102C200.521 315.104 197.083 318.542 197.083 323.126V324.273C201.665 352.917 219.999 373.542 257.811 379.273V406.773C257.811 411.354 261.249 414.792 266.977 415.939H284.165C288.749 415.939 292.186 412.501 293.333 406.773V379.273C327.708 373.542 350.624 349.479 350.624 318.542V318.542Z" fill="white"/>
<path fill-rule="evenodd" clip-rule="evenodd" d="M114.584 218.853C81.3531 307.084 127.187 406.772 216.562 438.853C220 441.147 223.437 445.728 223.437 449.166V465.209C223.437 467.5 223.437 468.647 222.291 469.791C221.147 474.375 216.562 476.665 211.978 474.375C147.812 453.75 98.5406 404.478 77.9156 340.312C43.5406 231.459 103.125 115.728 211.978 81.353C213.125 80.209 215.416 80.209 216.562 80.209C221.147 81.353 223.437 84.7905 223.437 89.3747V105.415C223.437 111.146 221.147 114.584 216.562 116.875C169.584 134.062 131.772 170.728 114.584 218.853ZM327.709 85.938C328.853 81.3538 333.437 79.063 338.022 81.3538C401.041 101.979 451.459 151.251 472.084 216.563C506.459 325.416 446.875 441.147 338.022 475.522C336.875 476.666 334.584 476.666 333.437 476.666C328.853 475.522 326.562 472.085 326.562 467.501V451.46C326.562 445.729 328.853 442.291 333.437 440.001C380.416 422.813 418.228 386.147 435.416 338.022C468.647 249.791 422.812 150.104 333.437 118.022C330 115.729 326.562 111.147 326.562 106.563V90.5223C326.562 88.2288 326.562 87.0848 327.709 85.938Z" fill="white"/>
</svg>
